<svg id="Layer_1" data-name="Layer 1" xmlns="http://www.w3.org/2000/svg" viewBox="0 0 839.5 148.1"><defs><style>.cls-1,.cls-2{fill:#333;}.cls-1{fill-rule:evenodd;}</style></defs><title>HNW-Logo-Std-Black</title><path class="cls-1" d="M380,17.1Z"/><path class="cls-1" d="M402.8,10.8c-.2.1.3.2.9.3h1.5c.2-.1-.3-.3-.9-.3A2.5,2.5,0,0,0,402.8,10.8Z"/><path class="cls-1" d="M422.3,10.5Z"/><path class="cls-1" d="M425.5,11.4c.2-.1.7.1,1.3.4l2,1,2,1a3.9,3.9,0,0,0,1.4.5l-.7-.5-1.8-1.1C428.3,11.9,426.5,11.2,425.5,11.4Z"/><path class="cls-1" d="M428.1,11.4c-.4,0,1.7,1.3,2.2,1.2S428.6,11.3,428.1,11.4Z"/><path class="cls-1" d="M426,9.8Z"/><path class="cls-1" d="M356,19.6c-.2.5,1.5-.7,1.6-.9s-.3-.1-.7.2A2.5,2.5,0,0,0,356,19.6Z"/><path class="cls-1" d="M361.7,14.7a10.6,10.6,0,0,0,2.6-1.3l2.1-1.3,1.7-1.3c1.5-1.4-.1-.5-2.2.7L363,13.6l-.9.8Z"/><path class="cls-1" d="M375.2,6a9.3,9.3,0,0,0,4.1-1.2,12.7,12.7,0,0,0,3.8-2c.3-.2-.1-.1-.8.1A17.7,17.7,0,0,0,379.5,4l-.8.3-.7.4-1.4.6Z"/><path class="cls-1" d="M420.6-.5a12.5,12.5,0,0,1,3.2.7,20,20,0,0,1,2.9,1A21.9,21.9,0,0,1,430,2.4c4.6,1.7,9,4.1,10.2,4.1-.6,0-4.3-2.4-8.7-4.3L428.2,1,425,0a16.6,16.6,0,0,0-2.6-.5A3.6,3.6,0,0,0,420.6-.5Z"/><polygon class="cls-2" points="34.2 65.3 18 65.3 18 43 0 43 0 103 18 103 18 79.6 34.2 79.6 34.2 103 52.2 103 52.2 43 34.2 43 34.2 65.3"/><polygon class="cls-2" points="63.4 103 107.9 103 107.9 88.7 81.3 88.7 81.3 79 105.2 79 105.2 66 81.3 66 81.3 57.3 107.9 57.3 107.9 43 63.4 43 63.4 103"/><path class="cls-2" d="M130.9,43l-21.2,60h18.8l3.2-9.8h18.8l2.9,9.8h18.9L151.9,43ZM135,79.9l6.1-22.1,6.1,22.1Z"/><polygon class="cls-2" points="194.8 43 176.7 43 176.7 103 213.3 103 213.3 88.7 194.6 88.7 194.8 43"/><polygon class="cls-2" points="208.1 57.3 222.3 57.3 222.3 103 240.1 103 240.1 57.3 254.2 57.3 254.2 43 208.1 43 208.1 57.3"/><polygon class="cls-2" points="295.3 43 295.3 65.3 279.1 65.3 279.1 43 261.1 43 261.1 103 279.1 103 279.1 79.6 295.3 79.6 295.3 103 313.3 103 313.3 43 295.3 43"/><polygon class="cls-2" points="558.2 82.7 549.3 43 530.9 43 522.1 82.7 514.1 43 495.8 43 512.2 103 531 103 539.8 63.7 548.7 103 567.4 103 583.8 43 566.1 43 558.2 82.7"/><polygon class="cls-2" points="589.6 103 634.2 103 634.2 88.7 607.5 88.7 607.5 79 631.4 79 631.4 66 607.5 66 607.5 57.3 634.2 57.3 634.2 43 589.6 43 589.6 103"/><path class="cls-2" d="M657.1,43l-21.2,60h18.9l3.2-9.8h18.7l2.9,9.8h19L678.1,43Zm4.1,36.9,6.1-22.1,6.1,22.1Z"/><polygon class="cls-2" points="721.1 43 703 43 703 103 739.5 103 739.5 88.7 720.9 88.7 721.1 43"/><polygon class="cls-2" points="734.4 57.3 748.5 57.3 748.5 103 766.3 103 766.3 57.3 780.5 57.3 780.5 43 734.4 43 734.4 57.3"/><polygon class="cls-2" points="821.5 43 821.5 65.3 805.3 65.3 805.3 43 787.3 43 787.3 103 805.3 103 805.3 79.6 821.5 79.6 821.5 103 839.5 103 839.5 43 821.5 43"/><path class="cls-1" d="M427.6,6.6l-1.3-.3L425.2,6l-1.1-.3L421,5.1l-1.6-.4a59.9,59.9,0,0,1,10.1,2.2l1.9.6,2.1.7,4.1,1.7a69.4,69.4,0,0,1,7.7,4,86.6,86.6,0,0,1,9.3,6.5l.3-.3c-.8-1,.4-.3,0,0s.1.7-.3.3.9,1.4,1.4,2,1.1,1.1,1.6,1.6a30.8,30.8,0,0,0,3.3,3,10.7,10.7,0,0,0,1.6,1.4l1.5,1.4,1.3,1.3a13.4,13.4,0,0,1,1.1,1.4c.9,1.3.4,2.2.8,2.6s2.3.9,3.3,2.3.3,1.8.5,2.7a10.9,10.9,0,0,0,1,2.6l.9,1.8,1,1.4a6.4,6.4,0,0,1,.8,1.4,42.7,42.7,0,0,1,1.7,5.1l.3,1.7a11.6,11.6,0,0,1,.4,1.8l.3,1.8.2,1v.9c.2,1.3.3,2.5.4,3.7a11,11,0,0,1,.2,1.8c.1.5.1,1.1.2,1.6a6.8,6.8,0,0,0,.2,1.5c0,.5.1,1,.1,1.4a10.3,10.3,0,0,0,.5,2.2c-.4-3.8-.2-4.8.1-4.3a6.8,6.8,0,0,1-.1,4.3c-.2,1-.2,2-.3,2.8s-.1,1.5-.1,1.9.2,1,.6-.2a5.4,5.4,0,0,0,.4-1.5q.2-.7.3-1.8a4.1,4.1,0,0,0,.1-1.1,3.7,3.7,0,0,0,.1-1.1V68.3a50.7,50.7,0,0,0-1.5-11.7A63.6,63.6,0,0,0,475,45.2c-.8-1.7-1.5-3.3-2.2-4.6l-1-1.9a6,6,0,0,1-.9-1.5l-.8-1.3L469,34.5,468,33l-1.2-1.4a17.1,17.1,0,0,0-1.1-1.4l-.9-1.3a9.7,9.7,0,0,1-1.2-2.1c0-.3,2.7,1.4,2.2.6s-1.6-2.3-2.6-3.6-1.1-1.3-1.6-1.9L459.7,20a59.6,59.6,0,0,0-8.3-6.9A72,72,0,0,0,426.9,2a73.2,73.2,0,0,0-53.7,7.8A72,72,0,0,0,362.7,17a111,111,0,0,0-8.5,8.2c-.9,1.2-1.6,1.9-2.1,2.5l-.8.8a5,5,0,0,1,.9-1.6l1.2-1.6.6-.8.6-.8c.9-1,1.5-1.8,1.6-1.8L354,24c-1.2,1.3-2.7,2.9-3.9,4.5l-.9,1.1a10.5,10.5,0,0,1-.8,1.1,14.2,14.2,0,0,1-1.1,1.6c-.6.7-.6.8.2-.4l-.7,1-.8,1.3-.8,1.4-.9,1.6-.8,1.6a13,13,0,0,0-.8,1.7,14.2,14.2,0,0,0-.8,1.8,8.7,8.7,0,0,0-.7,1.7c-1.8,4.6-2.6,8.7-2.2,8.8,1.1-4.4,1.9-5.4,1.9-4.8a4.8,4.8,0,0,1-.5,1.8,13.1,13.1,0,0,1-1.4,3c-1,3.9-1.1,3.5-1.1,2.3s.2-3-.4-1.8A15.4,15.4,0,0,0,337,55c0,.3-.1.6-.1.8v1a13.4,13.4,0,0,0-.1,2.1c-.1.8-.1,1.8-.3,3s-.6,5.2-.8,7.5-.2,4.5-.1,5.6a73.1,73.1,0,0,0,2.2,16.1,71.6,71.6,0,0,0,6.5,16.5A76.9,76.9,0,0,0,368,134l1.6,1.1,1.8,1.2,1,.6,1,.6,2.1,1.2a72.2,72.2,0,0,0,35,9.4,67,67,0,0,0,12.8-1.2,61,61,0,0,0,11.4-3.4l2.5-1.1,2.3-1.2,1.1-.6,1.1-.6,1.9-1.3c1.2-.8,2.3-1.7,3.3-2.5l2.4-2.5c.3-.5,1.1-1.9,1.8-3.3a15.8,15.8,0,0,0,1.3-3.5c0-1.1-1.5-2.9-3.1-4.5s-3.4-2.9-4-2.7a11.5,11.5,0,0,0-3.9,2.6,41.7,41.7,0,0,1-5.9,4.7l-.9.5-.9.6-1.9.9-2,.9-1,.4-1.1.4a43.9,43.9,0,0,1-9,2.2,60.8,60.8,0,0,1-9.5.7,86.8,86.8,0,0,1-9-.6c-1.6-.2-1.5.5-2.5.4a39.2,39.2,0,0,1-12.2-3.6,103.3,103.3,0,0,1-12.8-7.4l-1.7-1.1-1.7-1.3-.8-.6-.8-.7-1.6-1.4c-1-1-2.1-2-3-3.1l-1.5-1.7a20.9,20.9,0,0,0-1.4-1.7,73.4,73.4,0,0,1-4.8-7.5l-.6-1-.5-1-1-1.9-.9-2.1a3,3,0,0,1-.4-1l-.4-1c-.5-1.1-1.7-2.4-2.1-3.5a40,40,0,0,1-2.2-8.9c-.1-.8-.1-1.6-.2-2.4a3.7,3.7,0,0,1-.1-1.1,4.1,4.1,0,0,1-.1-1.1c0-.7-.1-1.4-.1-2.1V68a13.4,13.4,0,0,1,.1-2,14.1,14.1,0,0,1,.1-2l.3-2.1a3.6,3.6,0,0,0,.2-1,4.3,4.3,0,0,0,.2-1.1c.3-1.4.7-2.9,1.1-4.3l.6-2.1c.2-.7.5-1.3.7-2a61,61,0,0,1,5-10.8,55.8,55.8,0,0,1,7.4-10.3,61.8,61.8,0,0,1,18.9-14.7l1.8-.9L385,14l3.9-1.3,1.8-.5,1.7-.5,1.5-.4,1.3-.4c.2-.1-1.8-.5-1.8-.5s1-.9,2.3-1.4l1.9-.4a3.6,3.6,0,0,1,1.4-.1c.8,0,.4,1.6-2.3,1.6h6.5c2.7-.2,5.7-.2,8.9-.3,1.7,0,1.4-.5,2.5-.6h3.5l2.8.6c1.7.4,2.9.8,3.5.6s0-.9-1.9-1.2l-1.4-.3-1.2-.2c-.7-.1-1.2-.2-1-.3a6.2,6.2,0,0,1,2.5-.1l1.8.2,2.1.4,2.1.6,2.1.6,3.5,1.3a67.2,67.2,0,0,1,8.1,3.5l1.4.7,1.3.7,2.3,1.6L448,19a7.7,7.7,0,0,1,1,1.2c.5.7,0,.6-1,0l-1.9-1.1-2.5-1.5-4.9-2.7-1.8-.8-.6-.2c0,.1.3.4.8.7l1,.6.6.4.7.4,3.1,1.9,1.7,1.1,1.7,1.2.8.6.9.7,1.6,1.2,1.5,1.3,1.4,1.2,2.1,1.9,1.1,1-4.3-4c-1.4-1.4-2.1-2.5.4-1.5-.1,0-.5-.4-.4-.4l.6.3,1.9,1.5,1.6,1.3,1.6,1.5c1.1,1,2.1,2.2,3.2,3.4l1.5,1.8a8.6,8.6,0,0,0,.7,1l.7,1a24.3,24.3,0,0,1,1.4,2l1.3,2a79.9,79.9,0,0,1,6.4,13.8,48.5,48.5,0,0,1,1.4,5.6,15.5,15.5,0,0,1,.4,2.1,17,17,0,0,0,.4,2.2c.1.8.1,1.6.2,2.4a17.9,17.9,0,0,1,.2,2.3c.2,3.2.1,6.3.1,8.8s-.1,2.3-.1,3.1a7.2,7.2,0,0,0,.1,1.7c.1.4.4-.4.7-1.8s.2-1.6.3-2.6.1-1,.1-1.5.1-1.1.1-1.7V69.2a26.4,26.4,0,0,0-.2-2.9,12.7,12.7,0,0,0-.2-2.2,5.5,5.5,0,0,0-.1-.9,61.9,61.9,0,0,0-3.4-13.3c-.2-.6-.5-1.2-.7-1.9a3.6,3.6,0,0,1-.4-.9l-.5-1a10.8,10.8,0,0,1-.8-1.9,17.4,17.4,0,0,1-1-1.9,3.1,3.1,0,0,1-.5-1l-.6-.9-1.1-1.9-1.2-1.9-.6-.9-.7-.9L462.5,33l-1.4-1.8-.6-.9-.8-.8a20.9,20.9,0,0,1-1.4-1.7,85.3,85.3,0,0,0-6.2-5.9,82.9,82.9,0,0,0-11.8-8.4l-1.5-.8-2.6-1.3-3.3-1.5-1.8-.7-1.8-.7c-2.5-.8-4.9-1.5-6.8-1.9l-2.3-.4h-.9c.3-.2,2.4,0,5.2.5l2,.5a14.1,14.1,0,0,1,2.2.6,37.6,37.6,0,0,1,4,1.3l1.5.6,1.2.4c.5.3.7.4.4.3L435,10l-1.8-.7-2.9-1-1.9-.6-2.2-.6,1.7.5,1.7.5,1.6.6,1.5.7,1.4.6,1.3.6,2,1c3.4,1.7,7.3,3.7,10.6,5.8a51.3,51.3,0,0,1,7,5.1,8.2,8.2,0,0,1,1.1,1.7,7,7,0,0,0,1.4,1.9c-.3-.3-.1-.2.4.2l.9.7,1.2,1,1.2,1.1a9.4,9.4,0,0,1,1,1c.6.7,1,1.2.9,1.4s-.1-.7-.5-1.4l-.7-1.1a11.3,11.3,0,0,0-1-1.3l-1.3-1.6-1.5-1.6a6,6,0,0,1-.8-.8l-.9-.9-1.9-1.7a79.4,79.4,0,0,0-8.9-6.3c-3.1-1.8-6.2-3.2-8.6-4.3s-4.3-2.4-8-3.5Zm-48.4,7.9c.4-.2.8-.4.7-.1s-1.3,1.4-1.5.8Zm8.3-3.3,1.7-.5,2.6-.7h.9l-1.8.6-1.7.5-1.7.5c-1,.3-1.7.5-1.5.3Zm18.1-3c-.4.3-2.9,0-2.5-.2S406,8,405.6,8.2Zm11.7-.3Zm-15.1-.3c-.4.3-2.9.2-2.5-.1S402.7,7.4,402.2,7.6ZM342.7,60.4c.1.3-.6,2.1-.7,1.7S342.6,60,342.7,60.4Zm59.5-54c-.3.1-2.1,0-1.8-.2S402.6,6.1,402.2,6.4ZM355,30.5a32,32,0,0,0,2.3-2.4c0-.1-.3.3-.7.8a23.7,23.7,0,0,0-1.5,2.1c-.6.7-1.1,1.5-1.5,2s-.7.8-.7.6S353.9,31.7,355,30.5Zm3.8-4.7.3-.3a3.3,3.3,0,0,1,.6-.8c.4-.5.8-1.1.6-1s.8.3.1,1-1.5,1.5-1.6,1.2Zm6-5c-.2.5-2.5,1.8-2.3,1.4S365,20.3,364.8,20.8Zm5.9-5.2c1.3-.7,2.3-1.2,1.2,0l-.8.7-.7.5-1.3.6a3.1,3.1,0,0,1-1.1.3A11.3,11.3,0,0,1,370.7,15.6Zm12-6.8c1.5-.6,3.2-1.4,5-2l1.3-.4,1.4-.4,2.7-.7,2.4-.5,2.1-.4,1.1-.2h1.2l2.5-.3,2.7-.2h7.1a26,26,0,0,1,3,.5c2.9.8,2.3.7.9.4l-2.5-.4L411.7,4a68.9,68.9,0,0,0-8.5.3,72.8,72.8,0,0,0-10.9,1.8,63.6,63.6,0,0,0-9.1,3.1L379.3,11A22.4,22.4,0,0,1,382.7,8.8Zm56.1,1a9.6,9.6,0,0,1,1.7,0,2.4,2.4,0,0,1,1.5.9c.4.6.4.8,0,.8a5.1,5.1,0,0,1-1.5-.6c-1.4-.7-2.9-1.7-2.7-1.9S437.8,9.8,438.8,9.8Zm7,3.1c1.3.3,1.9.6,2,.9s-.2.4-.7.5-2.2,0-1.5-1.1Zm18.5,16.7-.8-.7c-.4-.3-.6-.7-.3-.7S464.9,29.4,464.3,29.6Zm4,4.9c.5.4-.4-.2,0,0ZM431.6,5.2c-.6.1-3-1.1-2.5-1.2S432.1,5.2,431.6,5.2Zm11.8,4.6,1.7.9,1.9,1.1,3,2c.7.5.9.8.3.6l-1.9-.9-.6-.3-.6-.4-1.3-.7-1.3-.8-1.2-.8a7.9,7.9,0,0,1-1.6-1.4Zm11.1,6.7c.3.3.9,1.9,1.5,2.4l2.5,2.1.7.6.8.7,1.4,1.3,1.1,1.2a4.6,4.6,0,0,1,.7,1c.3.5.2.7-.5.5l-.8-.6-1.2-1.3L459,22.5l-1.8-1.9-.9-1-.9-.9-1.6-1.5L452.5,16C450.8,14.1,453.2,15.3,454.5,16.5ZM342.6,42.9l.8-.9.4-.3a13.1,13.1,0,0,1-1.2,2.2l-1.1,1.9A4.9,4.9,0,0,1,342.6,42.9Z"/><path class="cls-1" d="M395,132.8c.5-.1-1.7-1-2.1-.9S394.6,132.9,395,132.8Z"/><path class="cls-1" d="M379,126.8c.3.1-.5-.5-1.8-1.2l-4.1-2.8-1-.7-.8-.6-1.1-.7c-.4-.3,0,.1,1.6,1.5l1.1.8,2.2,1.6A15.2,15.2,0,0,0,379,126.8Z"/><path class="cls-1" d="M364.5,116.4c.4.2-.9-1.8-1.3-1.9S364.1,116.3,364.5,116.4Z"/><path class="cls-1" d="M353.2,101.5c.3.2-.1-1.4-.3-1.6S353,101.3,353.2,101.5Z"/><path class="cls-1" d="M346.9,83.8V82a6,6,0,0,0-.1-2.1.6.6,0,0,0-.1.4,6.2,6.2,0,0,0-.3,1,5.6,5.6,0,0,0,0,1.3A3.1,3.1,0,0,0,346.9,83.8Z"/><path class="cls-1" d="M345.7,70.5c.2.4.7-1.3.6-1.6S345.6,70.2,345.7,70.5Z"/><path class="cls-1" d="M347,61.1c.1.4.8-1.2.7-1.4S346.9,60.9,347,61.1Z"/><path class="cls-1" d="M350.4,48.9c0,.6,1-1.5,1.7-3l.5-1.3a10.1,10.1,0,0,0-1.2,2.2A10,10,0,0,0,350.4,48.9Z"/><path class="cls-1" d="M358.1,35.2c0,.2.4-.1.8-.5s1-.9,1-1.1-.4,0-.8.4A3.3,3.3,0,0,0,358.1,35.2Z"/><path class="cls-1" d="M361.7,31Z"/><path class="cls-1" d="M371.7,21.9c-.2.4,1.4-.4,1.6-.6s-.3-.1-.7.1A2.4,2.4,0,0,0,371.7,21.9Z"/><path class="cls-1" d="M433.1,14.3c-.2,0,.6.3,1.7,1l2,1.1,2.4,1.4a70.2,70.2,0,0,1,6.9,4.8l5.1,4.4,1.2,1.2,1.1,1.1.9,1,.8.9c1,1,1.5,1.6,1.1,1.1l-1.1-1.4-1.1-1.4-1.7-1.7-3-3.2a63.9,63.9,0,0,0-5.9-4.9,37.9,37.9,0,0,0-6.4-3.9C435.2,14.8,433.7,14.2,433.1,14.3Z"/><path class="cls-1" d="M465.8,47.1c-.1-.2,0,.5.2,1.3s.4,1.6.7,1.8S466.4,47.4,465.8,47.1Z"/><path class="cls-1" d="M467.6,51.6s.1.9.3,1.9a5.9,5.9,0,0,1,.2,1.3,2.2,2.2,0,0,0,.3.8,1.6,1.6,0,0,1,.1-.4V54.1A4,4,0,0,0,467.6,51.6Z"/><path class="cls-1" d="M462,38c-.2-.2,0,.5.4,1.3a8.2,8.2,0,0,0,.9,1.7c.2.1.1-.5-.2-1.3l-.6-1.1C462.3,38.3,462.2,38.1,462,38Z"/><path class="cls-1" d="M454.2,27.2c-.3-.1,0,.3.5.9l.4.5.5.5.9,1,1,1.1a10.5,10.5,0,0,0-1.6-2.1,11,11,0,0,0-.8-1Z"/><path class="cls-1" d="M470.7,88.1c-.1-.4.1.6,0,0Z"/><path class="cls-1" d="M465.8,102.2l-1.2,1.9-1.2,1.8-1.5,2.1-1.6,2-1.5,1.9a8.9,8.9,0,0,0-1.7,2.5c0-.2.6-.8,1.5-1.7s.9-1,1.5-1.5l1.6-1.9c.5-.7,1.1-1.4,1.5-2.1a16.7,16.7,0,0,0,1.3-2A9.4,9.4,0,0,0,465.8,102.2Z"/><path class="cls-1" d="M473.1,82.6c-.2-.4-1,2-.9,2.5s.3-.3.6-.9A6.1,6.1,0,0,0,473.1,82.6Z"/><path class="cls-1" d="M472.1,87.6c-.1-.4-.9,1.3-.8,1.5S472.1,87.9,472.1,87.6Z"/><path class="cls-1" d="M465.9,39.7c-.2-.2.1.5.6,1.4s.4,1.1.7,1.7a11.9,11.9,0,0,1,.8,1.6,7.7,7.7,0,0,0,.9,1.7,1.8,1.8,0,0,0-.3-.8,19.1,19.1,0,0,0-1.1-2.6l-.7-1.6A3.6,3.6,0,0,0,465.9,39.7Z"/><path class="cls-1" d="M473.9,61.4c-.8-.2.2,4.3.5,4.3s.4-1,.3-2.1a5.9,5.9,0,0,0-.2-1.4A1.4,1.4,0,0,0,473.9,61.4Z"/><path class="cls-1" d="M465.4,37c1,2,1.1,2.4,1,2.1l-.4-.9-.4-.7-.4-.8C464.1,34.7,463.1,32.8,465.4,37Z"/><path class="cls-1" d="M471,48.8c-.1-.2-.1.2-.1.7a4.1,4.1,0,0,0,.3,1c.2.2.2-.2.1-.6A2.1,2.1,0,0,0,471,48.8Z"/><path class="cls-1" d="M468.3,41.4c-.2-.1,0,.6.2,1.4l.3.6a1.4,1.4,0,0,0,.2.6,2.9,2.9,0,0,0,.4.8c.2.1.1-.6-.2-1.4A5.4,5.4,0,0,0,468.3,41.4Z"/><path class="cls-1" d="M475,60.4c-.2-.2-.2.5-.2,1.4a8.6,8.6,0,0,0,.3,2.1c.1.2.2-.5.2-1.4A5.1,5.1,0,0,0,475,60.4Z"/><path class="cls-1" d="M476.4,74.4c-.1-.2-.3.3-.4.9a3.8,3.8,0,0,0-.2,1.7C476,77.4,476.6,74.9,476.4,74.4Z"/><path class="cls-1" d="M476.5,85.1c-.9,1.2-.5.6,0,.1S477.3,84,476.5,85.1Z"/><path class="cls-1" d="M475.3,90.4c-.5,1.8,0,1.3.5.3s.9-2.6.5-2.8-.4.3-.6.8S475.4,90,475.3,90.4Z"/><path class="cls-1" d="M477.8,79l-.6,2a2.4,2.4,0,0,1-.2.8c0,.2-.1.5-.1.7s-.2.7-.1.9l.2-.4a5.8,5.8,0,0,0,.5-1.1A4.8,4.8,0,0,0,477.8,79Z"/><path class="cls-1" d="M473.4,97.3c0-.4.1.7,0,0Z"/><path class="cls-1" d="M472.8,100c0-.2-.4.2-.7.8a4.4,4.4,0,0,0-.8,1.5c0,.3.4-.2.8-.7A4,4,0,0,0,472.8,100Z"/><path class="cls-1" d="M467.6,32.7c-.4-.3.7,2.2,1.1,2.5S468,33,467.6,32.7Z"/><path class="cls-1" d="M473.3,43.2Z"/><path class="cls-1" d="M479.8,72.8c-.2-.4.2.6,0,0Z"/><path class="cls-1" d="M476.9,93.8c-.1-.4,0,.7,0,0Z"/><path class="cls-1" d="M456.4,126.4c.2-.5-1.5.6-1.6.9S456.3,126.6,456.4,126.4Z"/><path class="cls-2" d="M448.8,39.9a3.8,3.8,0,0,0-.5-1.1l-.3-.4a17.4,17.4,0,0,0-1.1-1.8,13.6,13.6,0,0,0-1.2-1.7,5,5,0,0,0-1.7-1l-.9-.2a2.7,2.7,0,0,0-1.8.7,15.9,15.9,0,0,0-1.3,1.3l-1,1.2-5.3,6.4a21.4,21.4,0,0,0-1.3,1.9l-.7.9a7.1,7.1,0,0,1-1,1.4l-.3.4-.5.7-.9,1.2a5.5,5.5,0,0,0-.9,1.4l-.7.9-3,4.3h0l-.3.4-.2.2-.8,1.1a10.9,10.9,0,0,0-.8,1.5l-.5.9a.3.3,0,0,0-.1.2l-2.2.6-5.2,1.5-5.2,1.4-8.3,2.2-5.7,1.8-2,.7v-.2l.9-1.4c.3-.6.5-.7.6-.7a2.4,2.4,0,0,0,1.7-1.3,2.8,2.8,0,0,0,.5-.9l.3-.3.4-.2a7.7,7.7,0,0,0,2.3-2.8v-.2a13.7,13.7,0,0,1,1.7-1.7h0a4.4,4.4,0,0,0,1.2-1.9,7.8,7.8,0,0,0,2.8-3.2,10.5,10.5,0,0,1,.8-1.1,9.6,9.6,0,0,0,1.8-2.3,1.8,1.8,0,0,0,.5-.7l.6-.8,1.3-2a4.3,4.3,0,0,1,.4-.7c.1-.2.1-.4.2-.5a4.1,4.1,0,0,0,.2-4.4.3.3,0,0,0-.1-.2c0-.2,0-.3-.1-.4a5.7,5.7,0,0,0-2.3-3.5,2.9,2.9,0,0,1-.8-1l-.9-1.3a3.7,3.7,0,0,0-1.1-1l-1.8-1a3.1,3.1,0,0,0-1.3-.3A2.4,2.4,0,0,0,401,34l-.3.6a3.3,3.3,0,0,0-.7,3,22,22,0,0,0-3.7,4.7,32.1,32.1,0,0,1-1.9,3.1c-3.3,4.3-6.3,8.8-8.8,12.7s-6.1,9.7-9.2,14.4l-.7,1.2a25.5,25.5,0,0,0-1.4,2.4h-.1l-1.4.3a5.6,5.6,0,0,0-1.6.7,3.1,3.1,0,0,0-1.3,2.1,3.7,3.7,0,0,0,.5,2.4l.2.2a30.7,30.7,0,0,0-2,3.6c-1.1,2.2-2.1,4.5-3.1,6.8a31.1,31.1,0,0,0-2.4,7.1,1.3,1.3,0,0,0-.1.6l-.3,1.6,3.7,2.3.9-2.6,3.1-5.4a4.9,4.9,0,0,0,1.6-1.7v-.2l.4-.6h0l.8-.6c.5-.6,1.1-1.2,1.6-1.9l1.3.9.4-3.3,1.4-1.3a12.5,12.5,0,0,0,1.1-1.8h0l.6-.5a2.7,2.7,0,0,0,1.9-2.2l.6-.5a2.5,2.5,0,0,0,.9-.9c.1-.3.4-.6,1.3-1l3.5-1.4,3.1-1.3,1.3-.4h.4l.7-.2h.4a1.7,1.7,0,0,0,1.2-.4c.1,0,.2,0,.2-.1l.6-.2a37,37,0,0,1,5-1.7,4.5,4.5,0,0,0,1.9-.7,5.7,5.7,0,0,0,3.1-1,4.8,4.8,0,0,0,2.1-.9h.2l1.2-.2,2.3-.8,3-.9-.2.3a68.3,68.3,0,0,1-6.2,9.3,3,3,0,0,0-.7,1,3.5,3.5,0,0,0-.5.8l-.8,1.3-1.9,2.8c-1.1,1.6-2.2,3.2-3.2,4.9a25.3,25.3,0,0,0-1.3,2.2,3.1,3.1,0,0,1-.5,1h0a6.6,6.6,0,0,0-1.8,3.5,5,5,0,0,0,.2,3.2,3.4,3.4,0,0,0,3.1,2.2h.3l.5.2a.1.1,0,0,0,.1.1,3.5,3.5,0,0,0,3,1.6l1.1-.2,2.5-.5-.4-.9.3-.4a2.3,2.3,0,0,0,1.6-.8,2.8,2.8,0,0,0,.8-2c0-.3-.1-.5-.1-.7a1.6,1.6,0,0,1,.2-1.5l1.1-2.1a4.8,4.8,0,0,0,.6-2.5l-.2-1.5.3-.4,5-6.4a.1.1,0,0,1,.1-.1l.6-.9a4,4,0,0,0,1.4-2l.3-.7c0-.2.1-.5.2-.5a1.8,1.8,0,0,0,.4-.9l.3-.4a3,3,0,0,0,1.5-1.9,5.6,5.6,0,0,1,1-1.5,15.8,15.8,0,0,0,1.2-1.5l1.2-1.7a22.3,22.3,0,0,0,2-3l1.5.7V67.3a3.8,3.8,0,0,0,1.4-1.4l.9-.2a3.3,3.3,0,0,0,1.5-1.3,8.3,8.3,0,0,1,.7-1.3l.3-.2.4-.3h0a4.3,4.3,0,0,0,1.7-1.5h0l.5-.6.2-.4.4-.5h.1l1.6-1.1h.2a4.9,4.9,0,0,0,1.7-1.2,3.1,3.1,0,0,0,1-1h.1l2.2-2.2a13.6,13.6,0,0,0,2.1-3.2,2,2,0,0,0,1.1-1.1c.5-.9,1-1.7,1.4-2.6a4.7,4.7,0,0,0,.3-.9h0A11.4,11.4,0,0,0,448.8,39.9ZM435.3,55.2a7.9,7.9,0,0,1-2.3,3.1,2.8,2.8,0,0,1-1.9.8c.3-.3.4-.6.6-.7s1-1.1,1.7-1.4a3.1,3.1,0,0,0,.7-.9c.2-.6.6-.8,1.2-1a1.4,1.4,0,0,1,.8-1.5C435.9,54.2,436,54.9,435.3,55.2Zm9.5-8.7a12.6,12.6,0,0,1-3.3,5.7,15.1,15.1,0,0,1-4.7,3.6l-.7.4a2.8,2.8,0,0,1,1.1-1.5,4.1,4.1,0,0,0,1.3-2l-.8.2v-.2l.5-.9c.1-.4.4-.6.9-.7s.8-.4,1.1-.9a20.1,20.1,0,0,1,4.6-5.1A3.3,3.3,0,0,1,444.8,46.5Z"/><path class="cls-2" d="M411.1,91.3l-.5,1.1C410.4,91.8,410.4,91.6,411.1,91.3Z"/></svg>