<svg id="Layer_1" data-name="Layer 1" xmlns="http://www.w3.org/2000/svg" viewBox="0 0 144.9 149.2"><defs><style>.cls-1,.cls-2{fill:#fff;}.cls-1{fill-rule:evenodd;}</style></defs><title>HNW-Icon-Std-White</title><path class="cls-1" d="M44.4,18.2Z"/><path class="cls-1" d="M67.3,11.9c-.2.1.3.2.9.3a3.6,3.6,0,0,0,1.5,0c.2-.1-.3-.3-.9-.3A2.5,2.5,0,0,0,67.3,11.9Z"/><path class="cls-1" d="M86.8,11.6Z"/><path class="cls-1" d="M89.9,12.5c.3-.1.7.1,1.3.4l2,1,2,1a3.7,3.7,0,0,0,1.5.5l-.8-.5-1.8-1.1C92.7,13,91,12.3,89.9,12.5Z"/><path class="cls-1" d="M92.6,12.5c-.5,0,1.7,1.3,2.1,1.2S93.1,12.4,92.6,12.5Z"/><path class="cls-1" d="M90.5,10.9Z"/><path class="cls-1" d="M20.4,20.7c-.2.5,1.5-.7,1.7-.9s-.3-.1-.8.2A4,4,0,0,0,20.4,20.7Z"/><path class="cls-1" d="M26.2,15.8l2.6-1.3,2-1.3,1.8-1.3c1.5-1.4-.2-.5-2.2.7l-2.9,2.1-1,.8Z"/><path class="cls-1" d="M39.7,7.1A10.4,10.4,0,0,0,43.8,6a19.8,19.8,0,0,0,3.8-2.1c.2-.2-.2-.1-.9.1L43.9,5.1l-.7.3-.8.4-1.3.6Z"/><path class="cls-1" d="M49.4,3.3c.1.8,4.5-.8,2.6-1.2l-1.5.6C49.9,3,49.4,3.4,49.4,3.3Z"/><path class="cls-1" d="M57.7,1.3c-.4.2.5-.4,0,0Z"/><path class="cls-1" d="M63.3.5Z"/><path class="cls-1" d="M78.4,0c-.4.1,1.6.7,1.8.6S78.7-.1,78.4,0Z"/><path class="cls-1" d="M85.1.6a11.4,11.4,0,0,1,3.1.7l3,1a26.7,26.7,0,0,1,3.3,1.2c4.5,1.7,8.9,4.1,10.1,4.1-.5,0-4.3-2.4-8.7-4.3L92.6,2.1l-3.1-1A15.7,15.7,0,0,0,86.8.6,3.2,3.2,0,0,0,85.1.6Z"/><path class="cls-1" d="M92,7.7l-1.2-.3-1.2-.3-1.1-.3-3.1-.6-1.6-.4A57.9,57.9,0,0,1,93.9,8l2,.6,2,.7L102,11a81.4,81.4,0,0,1,7.8,4,92.8,92.8,0,0,1,9.2,6.5l.3-.3c-.8-1,.5-.3,0,0s.1.7-.3.3l1.5,2,1.5,1.6q1.6,1.6,3.3,3l1.6,1.4,1.5,1.4a8.6,8.6,0,0,1,1.4,1.3l1.1,1.4c.9,1.3.4,2.2.7,2.6s2.4.9,3.3,2.3.3,1.8.6,2.7a19.1,19.1,0,0,0,.9,2.6,14.5,14.5,0,0,0,1,1.8l.9,1.4a6.4,6.4,0,0,1,.8,1.4,30,30,0,0,1,1.7,5.1c.1.6.3,1.2.4,1.7a11.3,11.3,0,0,1,.3,1.8c.1.6.3,1.2.4,1.8v1.9c.2,1.3.4,2.5.5,3.7s.1,1.2.2,1.8.1,1.1.1,1.6.1,1.1.2,1.5.1,1,.2,1.4a10.9,10.9,0,0,0,.4,2.2c-.3-3.8-.1-4.8.1-4.3a6.8,6.8,0,0,1-.1,4.3c-.1,1-.2,2-.3,2.8s-.1,1.5-.1,1.9.2,1,.7-.2a15.5,15.5,0,0,0,.4-1.5q.2-.7.3-1.8a4.1,4.1,0,0,1,.1-1.1V71.9a20.1,20.1,0,0,0,.1-2.5,64.7,64.7,0,0,0-1.5-11.7,72.6,72.6,0,0,0-3.9-11.4,49.2,49.2,0,0,0-2.3-4.6c-.3-.7-.7-1.3-1-1.9l-.9-1.5-.8-1.3-1-1.4-1.1-1.5-1.1-1.4-1.1-1.4-1-1.3a8.6,8.6,0,0,1-1.1-2.1c0-.3,2.6,1.5,2.1.6a29.8,29.8,0,0,0-2.5-3.6A15.4,15.4,0,0,0,126,23c-.6-.6-1.1-1.3-1.8-1.9a55,55,0,0,0-8.4-6.9A71.2,71.2,0,0,0,91.3,3.1a72.9,72.9,0,0,0-53.6,7.8,67,67,0,0,0-10.5,7.2,83.4,83.4,0,0,0-8.5,8.2l-2.1,2.5c-.5.5-.7.8-.8.8s.2-.6.8-1.6l1.2-1.6.6-.8.7-.8A11.8,11.8,0,0,1,20.7,23a20.5,20.5,0,0,0-2.3,2.1c-1.1,1.3-2.6,2.9-3.8,4.5l-.9,1.1-.8,1.1-1.2,1.6L12,33a8.6,8.6,0,0,0-.7,1l-.8,1.3-.9,1.4-.8,1.6-.9,1.6-.8,1.7a14.2,14.2,0,0,1-.8,1.8c-.2.5-.4,1.1-.7,1.7C3.8,49.7,3,53.8,3.4,53.9c1.1-4.4,2-5.4,2-4.8a8.5,8.5,0,0,1-.5,1.8,13.9,13.9,0,0,1-1.5,3c-1,3.9-1,3.5-1,2.3s.2-3-.4-1.8a6.4,6.4,0,0,0-.5,1.7c-.1.3-.1.6-.2.8v1A16.2,16.2,0,0,1,1.2,60c-.1.8-.1,1.8-.2,3S.4,68.2.2,70.5,0,75,0,76.1A73.1,73.1,0,0,0,2.2,92.2a81.9,81.9,0,0,0,6.5,16.5,71.2,71.2,0,0,0,10.6,14.8,74.7,74.7,0,0,0,13.1,11.6l1.7,1.1,1.8,1.2.9.6,1,.6,2.2,1.2a66.5,66.5,0,0,0,10,4.7,69.8,69.8,0,0,0,24.9,4.7A68,68,0,0,0,87.8,148a63.3,63.3,0,0,0,11.4-3.4l2.5-1.1,2.3-1.2,1.1-.6,1-.6,2-1.3a29.7,29.7,0,0,0,3.2-2.5,18.2,18.2,0,0,0,2.4-2.5,24.7,24.7,0,0,0,1.9-3.3,14.3,14.3,0,0,0,1.2-3.5c.1-1.1-1.4-2.9-3.1-4.5s-3.4-2.9-4-2.7a12.5,12.5,0,0,0-3.9,2.6,41.7,41.7,0,0,1-5.9,4.7l-.8.5-1,.6-1.8.9-2,.9-1.1.4-1,.4a44.8,44.8,0,0,1-9.1,2.2,59.5,59.5,0,0,1-9.4.7,88.8,88.8,0,0,1-9.1-.6c-1.6-.2-1.4.5-2.4.4A37.8,37.8,0,0,1,50,130.9a97.6,97.6,0,0,1-12.9-7.4l-1.7-1.1-1.6-1.3-.8-.6-.8-.7-1.6-1.4c-1.1-1-2.1-2-3.1-3.1a20.9,20.9,0,0,1-1.4-1.7l-1.4-1.7a60.3,60.3,0,0,1-4.9-7.5,3.1,3.1,0,0,1-.5-1l-.5-1a17.4,17.4,0,0,1-1-1.9l-1-2.1a10.4,10.4,0,0,1-.4-1l-.4-1c-.5-1.1-1.6-2.4-2.1-3.5A46.4,46.4,0,0,1,11.8,84l-.3-2.4c0-.3-.1-.7-.1-1.1V79.4a14.8,14.8,0,0,1-.1-2.1V73.4a5.3,5.3,0,0,0-.1-1.3V70.9a9.2,9.2,0,0,1-.1-1.8c0-.7.1-1.3.1-2s.1-1.3.2-2l.3-2.1a3.6,3.6,0,0,1,.2-1,4.3,4.3,0,0,1,.2-1.1c.3-1.4.7-2.9,1-4.3a17.2,17.2,0,0,0,.7-2.1,15.9,15.9,0,0,1,.7-2,60.3,60.3,0,0,1,4.9-10.8,67,67,0,0,1,7.4-10.3,63.4,63.4,0,0,1,19-14.7l1.8-.9,1.9-.7,3.8-1.3,1.9-.5,1.6-.5,1.5-.4,1.3-.4c.3-.1-1.7-.5-1.8-.5s1.1-.9,2.4-1.4l1.9-.4a3.1,3.1,0,0,1,1.3-.1c.9,0,.4,1.6-2.3,1.6h6.5c2.7-.2,5.8-.2,8.9-.3s1.5-.5,2.6-.6h3.4l2.9.6c1.6.4,2.8.8,3.5.6s0-.9-1.9-1.2l-1.4-.3-1.3-.2c-.7-.1-1.1-.2-.9-.3a5.6,5.6,0,0,1,2.4-.1l1.8.2,2.1.4,2.2.6,2,.6c1.4.4,2.6,1,3.5,1.3a66.1,66.1,0,0,1,8.2,3.5l1.3.7,1.3.7,2.4,1.6,1.8,1.4,1.1,1.2c.5.7,0,.6-1.1,0l-1.9-1.1-2.4-1.5-5-2.7-1.7-.8-.7-.2c0,.1.3.4.9.7l1,.6.6.4.6.4,3.1,1.9,1.7,1.1,1.7,1.2.9.6.8.7,1.7,1.2,1.5,1.3,1.3,1.2,2.2,1.9,1,1-4.3-4c-1.4-1.4-2-2.5.4-1.5-.1,0-.5-.4-.4-.4l.6.3a19.9,19.9,0,0,1,2,1.5l1.6,1.3,1.5,1.5a34.7,34.7,0,0,1,3.2,3.4l1.5,1.8.8,1,.7,1,1.4,2,1.2,2a79.9,79.9,0,0,1,6.4,13.8,31.2,31.2,0,0,1,1.5,5.6,15.5,15.5,0,0,0,.4,2.1l.3,2.2.3,2.4c0,.8.1,1.5.1,2.3a65.7,65.7,0,0,1,.1,8.8c0,1.2-.1,2.3-.1,3.1a7.2,7.2,0,0,0,.1,1.7c.2.4.4-.4.7-1.8s.2-1.6.3-2.6a7.6,7.6,0,0,0,.1-1.5,9.7,9.7,0,0,0,.1-1.7,8.5,8.5,0,0,0,0-1.6V70.3c0-1-.1-2-.1-2.9s-.2-1.6-.2-2.2a4.4,4.4,0,0,1-.1-.9A76.5,76.5,0,0,0,136.4,51c-.3-.6-.5-1.2-.8-1.9l-.4-.9a10.4,10.4,0,0,1-.4-1l-.9-1.9-1-1.9a9.3,9.3,0,0,1-.5-1,4.1,4.1,0,0,1-.5-.9l-1.1-1.9c-.4-.7-.9-1.3-1.3-1.9l-.6-.9-.6-.9L127,34.1l-1.4-1.8-.7-.9-.7-.8-1.5-1.7a68.8,68.8,0,0,0-6.2-5.9,73,73,0,0,0-11.8-8.4l-1.5-.8a19.1,19.1,0,0,0-2.5-1.3L97.4,11l-1.8-.7-1.9-.7a66.1,66.1,0,0,0-6.8-1.9l-2.2-.4h-.9c.2-.2,2.4,0,5.1.5l2.1.5,2.2.6a29.7,29.7,0,0,1,3.9,1.3l1.6.6,1.1.4.5.3-.9-.3-1.8-.7-2.8-1-1.9-.6-2.2-.6,1.7.5,1.6.5,1.6.6,1.5.7,1.4.6,1.3.6,2.1,1c3.3,1.7,7.3,3.7,10.6,5.8a51.3,51.3,0,0,1,7,5.1,8.2,8.2,0,0,1,1.1,1.7,6.4,6.4,0,0,0,1.3,1.9c-.3-.3-.1-.2.4.2l1,.7,1.1,1,1.2,1.1a9.4,9.4,0,0,1,1,1,4.5,4.5,0,0,1,1,1.4,5.9,5.9,0,0,0-.5-1.4l-.7-1.1-1.1-1.3c-.3-.5-.8-1-1.2-1.6l-1.5-1.6-.9-.8-.9-.9-1.9-1.7a71.2,71.2,0,0,0-8.9-6.3,85.8,85.8,0,0,0-8.6-4.3c-1.3-.5-4.3-2.4-8-3.5ZM43.6,15.6c.4-.2.8-.4.7-.1s-1.3,1.4-1.5.8ZM52,12.3l1.7-.5,2.6-.7h.8l-1.7.6-1.8.5-1.6.5c-1,.3-1.7.5-1.5.3Zm18-3c-.4.3-2.9,0-2.5-.2S70.5,9.1,70,9.3ZM81.7,9Zm-15-.3c-.4.3-2.9.2-2.6-.1S67.1,8.5,66.7,8.7ZM7.1,61.5c.1.3-.5,2.1-.7,1.7S7,61.1,7.1,61.5Zm59.5-54c-.2.1-2.1,0-1.7-.2S67,7.2,66.6,7.5ZM19.4,31.6a32,32,0,0,0,2.3-2.4L21,30a23.7,23.7,0,0,0-1.5,2.1l-1.5,2c-.4.5-.6.8-.7.6S18.3,32.8,19.4,31.6Zm3.9-4.7.2-.3.6-.8c.4-.5.9-1.1.7-1s.7.3.1,1-1.5,1.5-1.7,1.2Zm5.9-5c-.2.5-2.4,1.8-2.2,1.4S29.5,21.4,29.2,21.9Zm5.9-5.2c1.3-.7,2.4-1.2,1.2,0l-.8.7-.7.5-1.2.6a3.4,3.4,0,0,1-1.2.3A19.3,19.3,0,0,1,35.1,16.7Zm12-6.8c1.5-.6,3.2-1.4,5-2l1.4-.4,1.3-.4,2.7-.7L60,5.9l2.1-.4,1.1-.2h1.2l2.5-.3,2.6-.2h7.1l3.1.5c2.8.8,2.3.7.9.4l-2.5-.4-1.9-.3a67.8,67.8,0,0,0-8.5.3A68.8,68.8,0,0,0,56.8,7.2a65.3,65.3,0,0,0-9.2,3.1l-3.8,1.8A17,17,0,0,1,47.1,9.9Zm56.1,1h1.7a2.1,2.1,0,0,1,1.5.9c.5.6.4.8.1.8a6.7,6.7,0,0,1-1.6-.6c-1.3-.7-2.8-1.7-2.7-1.9S102.2,10.9,103.2,10.9Zm7.1,3.1c1.3.3,1.9.6,1.9.9s-.2.4-.6.5-2.3,0-1.5-1.1S110.2,14,110.3,14Zm18.5,16.7-.9-.7c-.3-.3-.6-.7-.2-.7S129.3,30.5,128.8,30.7Zm3.9,4.9ZM96,6.3c-.5.1-3-1.1-2.5-1.2S96.5,6.3,96,6.3Zm11.9,4.6,1.7.9,1.8,1.1a28.4,28.4,0,0,1,3.1,2c.7.5.9.8.3.6l-1.9-.9-.6-.3-.7-.4-1.3-.7a5.7,5.7,0,0,0-1.3-.8l-1.2-.8a7.9,7.9,0,0,1-1.6-1.4ZM119,17.6c.3.3.8,1.9,1.5,2.4l2.4,2.1.8.6.7.7,1.4,1.3,1.2,1.2.7,1c.3.5.2.7-.5.5s-.5-.2-.8-.6a15.8,15.8,0,0,1-1.3-1.3l-1.6-1.9-1.8-1.9-.9-1a3.8,3.8,0,0,1-.9-.9l-1.6-1.5L117,17.1C115.2,15.2,117.6,16.4,119,17.6ZM7,44l.8-.9.4-.3A8.3,8.3,0,0,1,7,45a20.1,20.1,0,0,1-1.1,1.9A5.7,5.7,0,0,1,7,44Z"/><path class="cls-1" d="M59.5,133.9c.4-.1-1.7-1-2.2-.9S59,134,59.5,133.9Z"/><path class="cls-1" d="M43.5,127.9l-1.8-1.2c-1.2-.8-2.8-1.8-4.1-2.8l-1-.7-.8-.6-1.1-.7c-.4-.3-.1.1,1.6,1.5l1,.8c.6.4,1.4,1.1,2.3,1.6A13.7,13.7,0,0,0,43.5,127.9Z"/><path class="cls-1" d="M28.9,117.5c.5.2-.8-1.8-1.3-1.9S28.5,117.4,28.9,117.5Z"/><path class="cls-1" d="M17.6,102.6c.4.2-.1-1.4-.3-1.6S17.4,102.4,17.6,102.6Z"/><path class="cls-1" d="M11.4,84.9V83.1a10.4,10.4,0,0,0-.1-2.1c-.1,0-.1.1-.2.4a2.5,2.5,0,0,0-.2,1,2.8,2.8,0,0,0,0,1.3A2.1,2.1,0,0,0,11.4,84.9Z"/><path class="cls-1" d="M10.2,71.6c.1.4.6-1.3.5-1.6S10.1,71.3,10.2,71.6Z"/><path class="cls-1" d="M11.4,62.2c.1.4.8-1.2.7-1.4S11.3,62,11.4,62.2Z"/><path class="cls-1" d="M14.8,50c.1.6,1-1.5,1.7-3s.6-1.3.5-1.3a23.4,23.4,0,0,0-1.2,2.2A10,10,0,0,0,14.8,50Z"/><path class="cls-1" d="M22.6,36.3c-.1.2.3-.1.8-.5l1-1.1c0-.2-.4,0-.9.4S22.6,36,22.6,36.3Z"/><path class="cls-1" d="M26.2,32.1c-.1.3.1-.6,0,0Z"/><path class="cls-1" d="M36.2,23c-.2.4,1.4-.4,1.5-.6s-.2-.1-.6.1S36.2,22.9,36.2,23Z"/><path class="cls-1" d="M97.6,15.4c-.2,0,.5.3,1.6,1l2.1,1.1,2.3,1.4a70.2,70.2,0,0,1,6.9,4.8c1.6,1.3,3.5,2.9,5.1,4.4a13.6,13.6,0,0,1,1.2,1.2l1.1,1.1,1,1a3.6,3.6,0,0,0,.8.9c1,1,1.4,1.6,1.1,1.1s-.5-.7-1.2-1.4l-1.1-1.4-1.6-1.7-3.1-3.2a61.7,61.7,0,0,0-5.8-4.9,42.3,42.3,0,0,0-6.4-3.9C99.6,15.9,98.1,15.3,97.6,15.4Z"/><path class="cls-1" d="M130.3,48.2c-.2-.2-.1.5.1,1.3a6.7,6.7,0,0,0,.7,1.8C131.5,51.7,130.8,48.5,130.3,48.2Z"/><path class="cls-1" d="M132.1,52.7l.2,1.9.3,1.3c.1.4.1.7.2.8a.6.6,0,0,0,.1-.4c0-.3.1-.7.1-1.1A4.8,4.8,0,0,0,132.1,52.7Z"/><path class="cls-1" d="M126.5,39.1c-.2-.2,0,.5.3,1.3a5,5,0,0,0,1,1.7c.2.1,0-.5-.3-1.3a3.7,3.7,0,0,0-.5-1.1Z"/><path class="cls-1" d="M118.7,28.3c-.3-.1,0,.3.5.9l.4.5.4.5.9,1,1.1,1.1a10.5,10.5,0,0,0-1.6-2.1l-.9-1Z"/><path class="cls-1" d="M135.1,89.2c-.1-.4.1.6,0,0Z"/><path class="cls-1" d="M130.2,103.3a12.7,12.7,0,0,1-1.1,1.9l-1.3,1.8-1.5,2.1-1.6,2-1.5,1.9a6.4,6.4,0,0,0-1.6,2.5c0-.2.6-.8,1.5-1.7l1.4-1.5,1.6-1.9,1.6-2.1,1.3-2A8.6,8.6,0,0,0,130.2,103.3Z"/><path class="cls-1" d="M137.5,83.7c-.1-.4-.9,2-.8,2.5s.3-.3.5-.9A3.6,3.6,0,0,0,137.5,83.7Z"/><path class="cls-1" d="M136.5,88.7c-.1-.4-.8,1.3-.8,1.5S136.6,89,136.5,88.7Z"/><path class="cls-1" d="M130.4,40.8c-.3-.2,0,.5.5,1.4l.8,1.7a11.9,11.9,0,0,1,.8,1.6,7.7,7.7,0,0,0,.9,1.7l-.3-.8a19.1,19.1,0,0,0-1.1-2.6c-.1-.2-.4-.9-.8-1.6A6.4,6.4,0,0,0,130.4,40.8Z"/><path class="cls-1" d="M138.3,62.5c-.7-.2.2,4.3.6,4.3s.3-1,.3-2.1a5.8,5.8,0,0,0-.3-1.4C138.8,62.8,138.6,62.6,138.3,62.5Z"/><path class="cls-1" d="M129.8,38.1c1,2,1.2,2.4,1.1,2.1l-.5-.9-.3-.7-.4-.8C128.6,35.8,127.5,33.9,129.8,38.1Z"/><path class="cls-1" d="M135.5,49.9c-.2-.2-.2.2-.1.7a4.1,4.1,0,0,0,.3,1c.1.2.1-.2.1-.6A3.9,3.9,0,0,0,135.5,49.9Z"/><path class="cls-1" d="M132.7,42.5c-.2-.1,0,.6.3,1.4s.1.4.2.6a1.4,1.4,0,0,1,.2.6l.4.8c.2.1.1-.6-.1-1.4A5.2,5.2,0,0,0,132.7,42.5Z"/><path class="cls-1" d="M139.4,61.5c-.1-.2-.2.5-.1,1.4a5.9,5.9,0,0,0,.2,2.1c.2.2.3-.5.3-1.4A4.8,4.8,0,0,0,139.4,61.5Z"/><path class="cls-1" d="M140.8,75.5c-.1-.2-.2.3-.4.9a5.3,5.3,0,0,0-.1,1.7C140.4,78.5,141.1,76,140.8,75.5Z"/><path class="cls-1" d="M140.9,86.2c-.8,1.2-.4.6,0,.1S141.7,85.1,140.9,86.2Z"/><path class="cls-1" d="M139.7,91.5c-.4,1.8,0,1.3.5.3s1-2.6.6-2.8-.4.3-.6.8Z"/><path class="cls-1" d="M142.2,80.1s-.3,1-.5,2l-.2.8c-.1.2-.1.5-.2.7a3.4,3.4,0,0,0-.1.9l.3-.4L142,83A4.8,4.8,0,0,0,142.2,80.1Z"/><path class="cls-1" d="M137.9,98.4Z"/><path class="cls-1" d="M137.2,101.1c0-.2-.3.2-.7.8a6.1,6.1,0,0,0-.7,1.5c0,.3.3-.2.7-.7S137.3,101.4,137.2,101.1Z"/><path class="cls-1" d="M132,33.8c-.4-.3.7,2.2,1.1,2.5S132.5,34.1,132,33.8Z"/><path class="cls-1" d="M137.7,44.3Z"/><path class="cls-1" d="M144.2,73.9Z"/><path class="cls-1" d="M141.3,94.9c0-.4.1.7,0,0Z"/><path class="cls-1" d="M120.9,127.5c.2-.5-1.6.6-1.7.9S120.7,127.7,120.9,127.5Z"/><path class="cls-2" d="M113.3,41a3.6,3.6,0,0,0-.6-1.1l-.2-.4a17.4,17.4,0,0,1-1.1-1.8L110.1,36a4.7,4.7,0,0,0-1.6-1l-.9-.2a3.2,3.2,0,0,0-1.9.7,7.1,7.1,0,0,0-1.2,1.3l-1,1.2c-1.8,2.1-3.6,4.2-5.3,6.4l-1.4,1.9-.6.9-1,1.4-.3.4a1.8,1.8,0,0,0-.5.7l-1,1.2-.9,1.4-.6.9-3,4.3h-.1c-.1.1-.2.2-.2.3l-.3.2-.8,1.1-.8,1.5-.4.9-.2.2-2.1.6-5.2,1.5-5.3,1.4-8.2,2.2-5.8,1.8-2,.7v-.2a8,8,0,0,0,.9-1.4c.4-.6.5-.7.6-.7a2.7,2.7,0,0,0,1.8-1.3,6.3,6.3,0,0,0,.4-.9l.4-.3.4-.2a8.5,8.5,0,0,0,2.2-2.8l.2-.2a12.9,12.9,0,0,1,1.6-1.7h.1a3.6,3.6,0,0,0,1.1-1.9,8,8,0,0,0,2.9-3.2l.7-1.1a10.1,10.1,0,0,0,1.9-2.3l.5-.7a2.2,2.2,0,0,0,.5-.8,16.7,16.7,0,0,0,1.3-2l.4-.7a1.7,1.7,0,0,0,.2-.5,4.1,4.1,0,0,0,.2-4.4v-.2a.8.8,0,0,1-.1-.4,6.4,6.4,0,0,0-2.4-3.5,4.9,4.9,0,0,1-.8-1l-.8-1.3a4.4,4.4,0,0,0-1.2-1l-1.7-1a3.7,3.7,0,0,0-1.4-.3,2.7,2.7,0,0,0-2.1,1.2,1.4,1.4,0,0,0-.2.6,3.6,3.6,0,0,0-.8,3,18.9,18.9,0,0,0-3.6,4.7,32.8,32.8,0,0,1-2,3.1,152.8,152.8,0,0,0-8.7,12.7L40.9,73.6l-.8,1.2-1.4,2.4h-.1l-1.4.3a5.1,5.1,0,0,0-1.5.7,2.8,2.8,0,0,0-1.3,2.1,2.8,2.8,0,0,0,.5,2.4l.2.2A21.2,21.2,0,0,0,33,86.5l-3,6.8a36.6,36.6,0,0,0-2.5,7.1c0,.2-.1.4-.1.6l-.3,1.6,3.8,2.3.8-2.6,3.2-5.4a4.4,4.4,0,0,0,1.5-1.7l.2-.2.3-.6h0l.8-.6c.5-.6,1.1-1.2,1.6-1.9l1.3.9.5-3.3,1.3-1.3a7.3,7.3,0,0,0,1.1-1.8.1.1,0,0,0,.1-.1l.6-.5a3,3,0,0,0,1.9-2.2l.6-.5a3.9,3.9,0,0,0,.8-.9,2.9,2.9,0,0,1,1.4-1l3.5-1.4,3-1.3,1.3-.4h.4l.7-.2h.4a2.2,2.2,0,0,0,1.3-.4h.2l.5-.2a33.8,33.8,0,0,1,5.1-1.7,4.6,4.6,0,0,0,1.8-.7,5.5,5.5,0,0,0,3.1-1,4,4,0,0,0,2.1-.9h.2l1.2-.2,2.4-.8,2.9-.9-.2.3a53.7,53.7,0,0,1-6.2,9.3,6.1,6.1,0,0,0-.7,1l-.5.8c-.2.5-.5.9-.7,1.3l-2,2.8-3.2,4.9a11.9,11.9,0,0,0-1.2,2.2,9.3,9.3,0,0,0-.5,1h-.1a7.4,7.4,0,0,0-1.6,6.7,3.4,3.4,0,0,0,3.1,2.2h.4l.4.2h.1a3.7,3.7,0,0,0,3,1.6l1.1-.2,2.5-.5-.4-.9c.2-.1.3-.3.4-.4a2.5,2.5,0,0,0,1.6-.8,2.4,2.4,0,0,0,.7-2,1.5,1.5,0,0,0-.1-.7,1.9,1.9,0,0,1,.2-1.5,21.2,21.2,0,0,0,1.1-2.1,4,4,0,0,0,.6-2.5V92.3l.3-.4,4.9-6.4H82a3.5,3.5,0,0,0,.6-.9,4.4,4.4,0,0,0,1.5-2c.1-.2.1-.5.2-.7l.2-.5a2,2,0,0,0,.5-.9l.3-.4a3.8,3.8,0,0,0,1.5-1.9,3.1,3.1,0,0,1,1-1.5L89,75.1a16.3,16.3,0,0,1,1.1-1.7,22.3,22.3,0,0,0,2-3l1.5.7.2-2.7A3.5,3.5,0,0,0,95.1,67l1-.2a2.5,2.5,0,0,0,1.4-1.3,8.3,8.3,0,0,0,.7-1.3l.4-.2.3-.3h0a4.3,4.3,0,0,0,1.7-1.5h.1l.4-.6.3-.4.4-.5h0l1.6-1.1h.2a4.1,4.1,0,0,0,1.7-1.2,3.1,3.1,0,0,0,1-1,.1.1,0,0,0,.1-.1l2.2-2.2a11.1,11.1,0,0,0,2.1-3.2,2.5,2.5,0,0,0,1.2-1.1c.4-.9.9-1.7,1.3-2.6a1.9,1.9,0,0,0,.3-.9h0A10.5,10.5,0,0,0,113.3,41ZM99.8,56.3a7.3,7.3,0,0,1-2.4,3.1,2.6,2.6,0,0,1-1.9.8,4.5,4.5,0,0,1,.7-.7c.6-.4.9-1.1,1.6-1.4a2,2,0,0,0,.7-.9,1.9,1.9,0,0,1,1.2-1c.1-.6.2-1.2.9-1.5S100.5,56,99.8,56.3Zm9.4-8.7a13.4,13.4,0,0,1-3.2,5.7,16.4,16.4,0,0,1-4.7,3.6l-.8.4a2.8,2.8,0,0,1,1.1-1.5,4.1,4.1,0,0,0,1.3-2l-.7.2v-.2l.4-.9a1.3,1.3,0,0,1,.9-.7,1.2,1.2,0,0,0,1.1-.9,20.5,20.5,0,0,1,4.7-5.1A3.1,3.1,0,0,1,109.2,47.6Z"/><path class="cls-2" d="M75.5,92.4l-.4,1.1C74.8,92.9,74.9,92.7,75.5,92.4Z"/></svg>