<?xml version="1.0" encoding="UTF-8"?>
<svg width="336px" height="60px" viewBox="0 0 336 60" version="1.1" xmlns="http://www.w3.org/2000/svg" xmlns:xlink="http://www.w3.org/1999/xlink">
    <!-- Generator: Sketch 46.2 (44496) - http://www.bohemiancoding.com/sketch -->
    <title>logo-2color-healthnwealth</title>
    <desc>Created with Sketch.</desc>
    <defs></defs>
    <g id="Page-1" stroke="none" stroke-width="1" fill="none" fill-rule="evenodd">
        <g id="Artboard" transform="translate(-433.000000, -117.000000)">
            <g id="logo-2color-healthnwealth" transform="translate(433.000000, 117.000000)">
                <path d="M170.2,4.96 C170.28,4.92 170.48,5 170.72,5.12 L171.52,5.52 L172.32,5.92 C172.492116,6.021956 172.682236,6.089856 172.88,6.12 L172.6,5.92 L171.88,5.48 C171.32,5.16 170.6,4.88 170.2,4.96 Z" id="Shape" fill="#FF1111"></path>
                <path d="M144.68,6.28 C145.048902,6.15524871 145.398858,5.98027044 145.72,5.76 L146.56,5.24 L147.24,4.72 C147.84,4.16 147.2,4.52 146.36,5 L145.2,5.84 L144.84,6.16 L144.68,6.28 Z" id="Shape" fill="#FF1111"></path>
                <path d="M150.08,2.8 C150.656507,2.76942568 151.217986,2.60509042 151.72,2.32 C152.268404,2.14154574 152.782417,1.87101267 153.24,1.52 C153.36,1.44 153.2,1.48 152.92,1.56 C152.534857,1.67461724 152.16017,1.82181542 151.8,2 L151.48,2.12 L151.2,2.28 L150.64,2.52 L150.08,2.8 Z" id="Shape" fill="#FF1111"></path>
                <path d="M153.96,1.28 C154,1.6 155.8,0.96 155.04,0.8 C154.828519,0.847613235 154.625978,0.928629483 154.44,1.04 C154.2,1.16 154,1.32 153.96,1.28 Z" id="Shape" fill="#FF1111"></path>
                <path d="M168.24,0.2 C168.677102,0.236782514 169.107463,0.330923973 169.52,0.48 C169.916337,0.583439786 170.304144,0.71716636 170.68,0.88 C171.132138,1.00441079 171.573557,1.16492661 172,1.36 C173.84,2.04 175.6,3 176.08,3 C175.84,3 174.36,2.04 172.6,1.28 L171.28,0.8 L170,0.4 C169.659211,0.305749527 169.311439,0.238870191 168.96,0.2 C168.723872,0.139032006 168.476128,0.139032006 168.24,0.2 L168.24,0.2 Z" id="Shape" fill="#FF1111"></path>
                <polygon id="Shape" fill="#FFFFFF" fill-rule="nonzero" points="13.68 26.52 7.2 26.52 7.2 17.6 0 17.6 0 41.6 7.2 41.6 7.2 32.24 13.68 32.24 13.68 41.6 20.88 41.6 20.88 17.6 13.68 17.6"></polygon>
                <polygon id="Shape" fill="#FFFFFF" fill-rule="nonzero" points="25.36 41.6 43.16 41.6 43.16 35.88 32.52 35.88 32.52 32 42.08 32 42.08 26.8 32.52 26.8 32.52 23.32 43.16 23.32 43.16 17.6 25.36 17.6"></polygon>
                <path d="M52.36,17.6 L43.88,41.6 L51.4,41.6 L52.68,37.68 L60.2,37.68 L61.36,41.6 L68.92,41.6 L60.76,17.6 L52.36,17.6 Z M54,32.36 L56.44,23.52 L58.88,32.36 L54,32.36 Z" id="Shape" fill="#FFFFFF" fill-rule="nonzero"></path>
                <polygon id="Shape" fill="#FFFFFF" fill-rule="nonzero" points="77.92 17.6 70.68 17.6 70.68 41.6 85.32 41.6 85.32 35.88 77.84 35.88"></polygon>
                <polygon id="Shape" fill="#FFFFFF" fill-rule="nonzero" points="83.24 23.32 88.92 23.32 88.92 41.6 96.04 41.6 96.04 23.32 101.68 23.32 101.68 17.6 83.24 17.6"></polygon>
                <polygon id="Shape" fill="#FFFFFF" fill-rule="nonzero" points="118.12 17.6 118.12 26.52 111.64 26.52 111.64 17.6 104.44 17.6 104.44 41.6 111.64 41.6 111.64 32.24 118.12 32.24 118.12 41.6 125.32 41.6 125.32 17.6"></polygon>
                <polygon id="Shape" fill="#FFFFFF" fill-rule="nonzero" points="223.28 33.48 219.72 17.6 212.36 17.6 208.84 33.48 205.64 17.6 198.32 17.6 204.88 41.6 212.4 41.6 215.92 25.88 219.48 41.6 226.96 41.6 233.52 17.6 226.44 17.6"></polygon>
                <polygon id="Shape" fill="#FFFFFF" fill-rule="nonzero" points="235.84 41.6 253.68 41.6 253.68 35.88 243 35.88 243 32 252.56 32 252.56 26.8 243 26.8 243 23.32 253.68 23.32 253.68 17.6 235.84 17.6"></polygon>
                <path d="M262.84,17.6 L254.36,41.6 L261.92,41.6 L263.2,37.68 L270.68,37.68 L271.84,41.6 L279.44,41.6 L271.24,17.6 L262.84,17.6 Z M264.48,32.36 L266.92,23.52 L269.36,32.36 L264.48,32.36 Z" id="Shape" fill="#FFFFFF" fill-rule="nonzero"></path>
                <polygon id="Shape" fill="#FFFFFF" fill-rule="nonzero" points="288.44 17.6 281.2 17.6 281.2 41.6 295.8 41.6 295.8 35.88 288.36 35.88"></polygon>
                <polygon id="Shape" fill="#FFFFFF" fill-rule="nonzero" points="293.76 23.32 299.4 23.32 299.4 41.6 306.52 41.6 306.52 23.32 312.2 23.32 312.2 17.6 293.76 17.6"></polygon>
                <polygon id="Shape" fill="#FFFFFF" fill-rule="nonzero" points="328.6 17.6 328.6 26.52 322.12 26.52 322.12 17.6 314.92 17.6 314.92 41.6 322.12 41.6 322.12 32.24 328.6 32.24 328.6 41.6 335.8 41.6 335.8 17.6"></polygon>
                <path d="M171.04,3.04 L170.52,2.92 L170.08,2.8 L169.64,2.68 L168.4,2.44 L167.76,2.28 C169.129508,2.45637242 170.481206,2.75080176 171.8,3.16 L172.56,3.4 L173.4,3.68 L175.04,4.36 C176.099035,4.82856709 177.127712,5.36294461 178.12,5.96 C179.415503,6.74441484 180.65817,7.6129452 181.84,8.56 L181.96,8.44 C181.64,8.04 182.12,8.32 181.96,8.44 C181.8,8.56 182,8.72 181.84,8.56 C181.68,8.4 182.2,9.12 182.4,9.36 C182.6,9.6 182.84,9.8 183.04,10 C183.450424,10.4313722 183.89158,10.8324233 184.36,11.2 C184.554214,11.4074504 184.768605,11.5950428 185,11.76 L185.6,12.32 L186.12,12.84 C186.278919,13.0167057 186.42591,13.2037852 186.56,13.4 C186.92,13.92 186.72,14.28 186.88,14.44 C187.04,14.6 187.8,14.8 188.2,15.36 C188.6,15.92 188.32,16.08 188.4,16.44 C188.488304,16.8023478 188.622735,17.1518681 188.8,17.48 L189.16,18.2 L189.56,18.76 C189.689849,18.9324293 189.797369,19.120589 189.88,19.32 C190.14929,19.9850423 190.376406,20.6663923 190.56,21.36 L190.68,22.04 C190.752354,22.2753742 190.805856,22.5161346 190.84,22.76 L190.96,23.48 L191.04,23.88 L191.04,24.24 C191.12,24.76 191.16,25.24 191.2,25.72 C191.246412,25.957393 191.273169,26.198209 191.28,26.44 C191.32,26.64 191.32,26.88 191.36,27.08 C191.36426,27.2823535 191.391093,27.4835994 191.44,27.68 C191.44,27.88 191.48,28.08 191.48,28.24 C191.514243,28.5397717 191.581312,28.8348749 191.68,29.12 C191.52,27.6 191.6,27.2 191.72,27.4 C191.893117,27.9625596 191.879082,28.5660962 191.68,29.12 C191.6,29.52 191.6,29.92 191.56,30.24 C191.52,30.56 191.52,30.84 191.52,31 C191.52,31.16 191.6,31.4 191.76,30.92 C191.841953,30.7287502 191.895844,30.5266624 191.92,30.32 C191.973333,30.1333333 192.013333,29.8933333 192.04,29.6 C192.073119,29.4558089 192.086574,29.3077995 192.08,29.16 C192.115273,29.0161608 192.128757,28.8678419 192.12,28.72 L192.12,27.72 C192.102773,26.1419686 191.90141,24.5713413 191.52,23.04 C191.158386,21.4754342 190.649448,19.948621 190,18.48 C189.68,17.8 189.4,17.16 189.12,16.64 L188.72,15.88 C188.571333,15.6986607 188.450044,15.4965128 188.36,15.28 L188.04,14.76 L187.6,14.2 L187.2,13.6 L186.72,13.04 C186.583157,12.8458193 186.436292,12.6588994 186.28,12.48 L185.92,11.96 C185.725581,11.7011226 185.564328,11.4189294 185.44,11.12 C185.44,11 186.52,11.68 186.32,11.36 C186.12,11.04 185.68,10.44 185.28,9.92 C184.88,9.4 184.84,9.4 184.64,9.16 L183.88,8.4 C182.859088,7.38147908 181.747866,6.45769189 180.56,5.64 C177.601232,3.55755399 174.276564,2.05127562 170.76,1.2 C163.4647,-0.550284242 155.775871,0.566528903 149.28,4.32 C147.797704,5.1540957 146.39221,6.11786252 145.08,7.2 C143.889262,8.23222159 142.754323,9.32710437 141.68,10.48 C141.32,10.96 141.04,11.24 140.84,11.48 L140.52,11.8 C140.599473,11.5662771 140.72153,11.3492872 140.88,11.16 L141.36,10.52 L141.6,10.2 L141.84,9.88 C142.2,9.48 142.44,9.16 142.48,9.16 L141.6,10 C141.12,10.52 140.52,11.16 140.04,11.8 L139.68,12.24 C139.582955,12.3934285 139.476064,12.5404034 139.36,12.68 C139.228107,12.9031225 139.081097,13.1169556 138.92,13.32 C138.68,13.6 138.68,13.64 139,13.16 L138.72,13.56 L138.4,14.08 L138.08,14.64 L137.72,15.28 L137.4,15.92 C137.277072,16.1386519 137.170126,16.3659119 137.08,16.6 C136.956796,16.8323035 136.849872,17.0728822 136.76,17.32 C136.642912,17.5361412 136.549055,17.7640803 136.48,18 C135.76,19.84 135.44,21.48 135.6,21.52 C136.04,19.76 136.36,19.36 136.36,19.6 C136.341131,19.8507823 136.273178,20.0954147 136.16,20.32 C136.024831,20.7420723 135.836662,21.1452913 135.6,21.52 C135.2,23.08 135.16,22.92 135.16,22.44 C135.16,21.96 135.24,21.24 135,21.72 C134.920337,21.9426401 134.85356,22.1696825 134.8,22.4 C134.8,22.52 134.76,22.64 134.76,22.72 L134.76,23.12 C134.724688,23.3985203 134.711314,23.6793845 134.72,23.96 C134.68,24.28 134.68,24.68 134.6,25.16 C134.52,25.64 134.36,27.24 134.28,28.16 C134.2,29.08 134.2,29.96 134.24,30.4 C134.293086,32.5726999 134.588242,34.7327086 135.12,36.84 C135.709813,39.1392437 136.583177,41.3562448 137.72,43.44 C140.013741,47.6507756 143.260127,51.2670026 147.2,54 L147.84,54.44 L148.56,54.92 L148.96,55.16 L149.36,55.4 L150.2,55.88 C154.471106,58.3031987 159.289561,59.5972981 164.2,59.64 C165.918107,59.6444882 167.632665,59.4837484 169.32,59.16 C170.88068,58.8563186 172.40794,58.4008198 173.88,57.8 L174.88,57.36 L175.8,56.88 L176.24,56.64 L176.68,56.4 L177.44,55.88 C177.92,55.56 178.36,55.2 178.76,54.88 L179.72,53.88 C179.84,53.68 180.16,53.12 180.44,52.56 C180.668056,52.1155253 180.842608,51.6455783 180.96,51.16 C180.96,50.72 180.36,50 179.72,49.36 C179.08,48.72 178.36,48.2 178.12,48.28 C177.534117,48.515895 177.003089,48.8699138 176.56,49.32 C175.831745,50.0166769 175.041847,50.6459173 174.2,51.2 L173.84,51.4 L173.48,51.64 L172.72,52 L171.92,52.36 L171.52,52.52 L171.08,52.68 C169.9144,53.0994952 168.707681,53.3944709 167.48,53.56 C166.222605,53.752569 164.95204,53.8461896 163.68,53.84 C162.476652,53.8224463 161.27503,53.7423381 160.08,53.6 C159.44,53.52 159.48,53.8 159.08,53.76 C157.385784,53.5488809 155.737421,53.0624786 154.2,52.32 C152.424824,51.4568926 150.713775,50.4676929 149.08,49.36 L148.4,48.92 L147.72,48.4 L147.4,48.16 L147.08,47.88 L146.44,47.32 C146.04,46.92 145.6,46.52 145.24,46.08 L144.64,45.4 C144.465413,45.1636493 144.278487,44.9366676 144.08,44.72 C143.379877,43.759778 142.738697,42.7579349 142.16,41.72 L141.92,41.32 L141.72,40.92 L141.32,40.16 L140.96,39.32 C140.882973,39.1974104 140.828767,39.0618936 140.8,38.92 L140.64,38.52 C140.44,38.08 139.96,37.56 139.8,37.12 C139.371196,35.9709818 139.075924,34.7764715 138.92,33.56 C138.88,33.24 138.88,32.92 138.84,32.6 C138.804727,32.4561608 138.791243,32.3078419 138.8,32.16 C138.766881,32.0158089 138.753426,31.8677995 138.76,31.72 C138.76,31.44 138.72,31.16 138.72,30.88 L138.72,27.6 C138.713361,27.3327089 138.726732,27.0652958 138.76,26.8 C138.754356,26.5327223 138.767723,26.2653816 138.8,26 L138.92,25.16 C138.965513,25.0311384 138.992449,24.896454 139,24.76 C139.045702,24.6174399 139.072595,24.4695232 139.08,24.32 C139.2,23.76 139.36,23.16 139.52,22.6 L139.76,21.76 C139.84,21.48 139.96,21.24 140.04,20.96 C140.564263,19.4582526 141.234117,18.0113681 142.04,16.64 C142.866882,15.1586366 143.859962,13.7763772 145,12.52 C147.112584,10.0859015 149.680776,8.08841826 152.56,6.64 L153.28,6.28 L154,6 L155.56,5.48 L156.28,5.28 L156.96,5.08 L157.56,4.92 L158.08,4.76 C158.16,4.72 157.36,4.56 157.36,4.56 C157.36,4.56 157.76,4.2 158.28,4 L159.04,3.84 C159.222234,3.7900546 159.412517,3.77646299 159.6,3.8 C159.92,3.8 159.76,4.44 158.68,4.44 L161.28,4.44 C162.36,4.36 163.56,4.36 164.84,4.32 C165.52,4.32 165.4,4.12 165.84,4.08 L167.24,4.08 L168.36,4.32 C169.04,4.48 169.52,4.64 169.76,4.56 C170,4.48 169.76,4.2 169,4.08 L168.44,3.96 L167.96,3.88 C167.68,3.84 167.48,3.8 167.56,3.76 C167.887151,3.6788483 168.227412,3.66523788 168.56,3.72 L169.28,3.8 L170.12,3.96 L170.96,4.2 L171.8,4.44 L173.2,4.96 C174.309505,5.35518034 175.391838,5.82285494 176.44,6.36 L177,6.64 L177.52,6.92 L178.44,7.56 L179.2,8 C179.34926,8.14602713 179.483282,8.30685446 179.6,8.48 C179.8,8.76 179.6,8.72 179.2,8.48 L178.44,8.04 L177.44,7.44 L175.48,6.36 L174.76,6.04 L174.52,5.96 C174.52,6 174.64,6.12 174.84,6.24 L175.24,6.48 L175.48,6.64 L175.76,6.8 L177,7.56 L177.68,8 L178.36,8.48 L178.68,8.72 L179.04,9 L179.68,9.48 L180.28,10 L180.84,10.48 L181.68,11.24 L182.12,11.64 L180.4,10.04 C179.84,9.48 179.56,9.04 180.56,9.44 C180.52,9.44 180.36,9.28 180.4,9.28 L180.64,9.4 L181.4,10 L182.04,10.52 L182.68,11.12 C183.12,11.52 183.52,12 183.96,12.48 L184.56,13.2 C184.643741,13.3397971 184.73731,13.473467 184.84,13.6 L185.12,14 C185.319953,14.2571155 185.506855,14.5241191 185.68,14.8 L186.2,15.6 C187.226945,17.3543964 188.084162,19.2027712 188.76,21.12 C188.990974,21.8548863 189.177971,22.6028774 189.32,23.36 C189.392602,23.6359841 189.446062,23.9166514 189.48,24.2 C189.513963,24.4965268 189.567412,24.7904959 189.64,25.08 C189.68,25.4 189.68,25.72 189.72,26.04 C189.766436,26.3446257 189.793158,26.6519314 189.8,26.96 C189.88,28.24 189.84,29.48 189.84,30.48 C189.84,31.48 189.8,31.4 189.8,31.72 C189.786386,31.9474509 189.799814,32.1757138 189.84,32.4 C189.88,32.56 190,32.24 190.12,31.68 C190.24,31.12 190.2,31.04 190.24,30.64 C190.28,30.24 190.28,30.24 190.28,30.04 C190.28,29.84 190.32,29.6 190.32,29.36 L190.32,28.08 C190.314658,27.6921575 190.28795,27.304904 190.24,26.92 C190.238944,26.6248998 190.212176,26.3304529 190.16,26.04 C190.156585,25.9191045 190.143206,25.7986965 190.12,25.68 C189.865315,23.8617277 189.409178,22.0774246 188.76,20.36 C188.68,20.12 188.56,19.88 188.48,19.6 C188.410426,19.4878966 188.356589,19.3667632 188.32,19.24 L188.12,18.84 C187.989343,18.59745 187.882189,18.3429576 187.8,18.08 C187.651149,17.8351425 187.517561,17.581326 187.4,17.32 C187.309642,17.1998898 187.241873,17.0643526 187.2,16.92 L186.96,16.56 L186.52,15.8 L186.04,15.04 L185.8,14.68 L185.52,14.32 L185,13.6 L184.44,12.88 L184.2,12.52 L183.88,12.2 C183.681513,11.9833324 183.494587,11.7563507 183.32,11.52 C182.533344,10.6923308 181.705636,9.90467292 180.84,9.16 C179.367712,7.90443372 177.788352,6.78014343 176.12,5.8 L175.52,5.48 L174.48,4.96 L173.16,4.36 L172.44,4.08 L171.72,3.8 C170.72,3.48 169.76,3.2 169,3.04 L168.08,2.88 L167.72,2.88 C167.84,2.8 168.68,2.88 169.8,3.08 L170.6,3.28 C170.899332,3.33610993 171.193627,3.41637234 171.48,3.52 C172.022618,3.66334478 172.556787,3.83694965 173.08,4.04 L173.68,4.28 L174.16,4.44 C174.36,4.56 174.44,4.6 174.32,4.56 L174,4.4 L173.28,4.12 L172.12,3.72 L171.36,3.48 L170.48,3.24 L171.16,3.44 L171.84,3.64 L172.48,3.88 L173.08,4.16 L173.64,4.4 L174.16,4.64 L174.96,5.04 C176.32,5.72 177.88,6.52 179.2,7.36 C180.189169,7.95985746 181.125839,8.64228885 182,9.4 C182.174197,9.60761828 182.32199,9.83602588 182.44,10.08 C182.582307,10.3632021 182.771665,10.6201871 183,10.84 C182.88,10.72 182.96,10.76 183.16,10.92 L183.52,11.2 L184,11.6 L184.48,12.04 C184.623188,12.1631001 184.7569,12.2968117 184.88,12.44 C185.12,12.72 185.28,12.92 185.24,13 C185.2,13.08 185.2,12.72 185.04,12.44 L184.76,12 C184.639438,11.8172065 184.505753,11.6434155 184.36,11.48 L183.84,10.84 L183.24,10.2 C183.123492,10.1036505 183.016349,9.99650765 182.92,9.88 L182.56,9.52 L181.8,8.84 C180.672483,7.91941281 179.483012,7.07742783 178.24,6.32 C177,5.6 175.76,5.04 174.8,4.6 C173.84,4.16 173.08,3.64 171.6,3.2 L171.04,3.04 Z M151.68,6.2 C151.84,6.12 152,6.04 151.96,6.16 C151.92,6.28 151.44,6.72 151.36,6.48 L151.68,6.2 Z M155,4.88 L155.68,4.68 L156.72,4.4 L157.08,4.4 L156.36,4.64 L155.68,4.84 L155,5.04 C154.6,5.16 154.32,5.24 154.4,5.16 L155,4.88 Z M162.24,3.68 C162.08,3.8 161.08,3.68 161.24,3.6 C161.4,3.52 162.4,3.6 162.24,3.68 L162.24,3.68 Z M160.88,3.44 C160.72,3.56 159.72,3.52 159.88,3.4 C160.04,3.28 161.08,3.36 160.88,3.44 L160.88,3.44 Z M137.08,24.56 C137.12,24.68 136.84,25.4 136.8,25.24 C136.76,25.08 137.04,24.4 137.08,24.56 Z M160.88,2.96 C160.76,3 160.04,2.96 160.16,2.88 C160.28,2.8 161.04,2.84 160.88,2.96 L160.88,2.96 Z M142,12.6 C142.323092,12.2961551 142.630172,11.9757229 142.92,11.64 C142.92,11.6 142.8,11.76 142.64,11.96 C142.424892,12.2288951 142.224596,12.5093107 142.04,12.8 C141.8,13.08 141.6,13.4 141.44,13.6 C141.28,13.8 141.16,13.92 141.16,13.84 C141.16,13.76 141.56,13.08 142,12.6 Z M143.52,10.72 L143.64,10.6 C143.70328,10.4817611 143.784209,10.3738558 143.88,10.28 C144.04,10.08 144.2,9.84 144.12,9.88 C144.04,9.92 144.44,10 144.16,10.28 C143.88,10.56 143.56,10.88 143.52,10.76 L143.52,10.72 Z M145.92,8.72 C145.84,8.92 144.92,9.44 145,9.28 C145.08,9.12 146,8.52 145.92,8.72 Z M148.28,6.64 C148.8,6.36 149.2,6.16 148.76,6.64 L148.44,6.92 L148.16,7.12 L147.64,7.36 C147.502014,7.42685984 147.352824,7.4675479 147.2,7.48 C147.515291,7.14682021 147.879462,6.86357596 148.28,6.64 L148.28,6.64 Z M153.08,3.92 C153.68,3.68 154.36,3.36 155.08,3.12 L155.6,2.96 L156.16,2.8 L157.24,2.52 L158.2,2.32 L159.04,2.16 L159.48,2.08 L159.96,2.08 L160.96,1.96 L162.04,1.88 L164.88,1.88 C165.28356,1.92319427 165.684245,1.98997516 166.08,2.08 C167.24,2.4 167,2.36 166.44,2.24 L165.44,2.08 L164.68,2 C163.545277,1.96994347 162.409781,2.01001981 161.28,2.12 C159.810528,2.24922049 158.352999,2.48991335 156.92,2.84 C155.677121,3.16090866 154.460312,3.57542587 153.28,4.08 L151.72,4.8 C152.145833,4.46620528 152.601026,4.17166857 153.08,3.92 L153.08,3.92 Z M175.52,4.32 C175.746221,4.29989107 175.973779,4.29989107 176.2,4.32 C176.438167,4.36024441 176.652411,4.4887908 176.8,4.68 C176.96,4.92 176.96,5 176.8,5 C176.588519,4.95238676 176.385978,4.87137052 176.2,4.76 C175.64,4.48 175.04,4.08 175.12,4 C175.2,3.92 175.12,4.32 175.52,4.32 Z M178.32,5.56 C178.84,5.68 179.08,5.8 179.12,5.92 C179.16,6.04 179.04,6.08 178.84,6.12 C178.64,6.16 177.96,6.12 178.24,5.68 L178.32,5.56 Z M185.72,12.24 L185.4,11.96 C185.24,11.84 185.16,11.68 185.28,11.68 C185.4,11.68 185.96,12.16 185.72,12.24 Z M172.64,2.48 C172.4,2.52 171.44,2.04 171.64,2 C171.84,1.96 172.84,2.48 172.64,2.48 Z M177.36,4.32 L178.04,4.68 L178.8,5.12 L180,5.92 C180.28,6.12 180.36,6.24 180.12,6.16 L179.36,5.8 L179.12,5.68 L178.88,5.52 L178.36,5.24 L177.84,4.92 L177.36,4.6 C177.122409,4.44302303 176.907126,4.25465099 176.72,4.04 L177.36,4.32 Z M181.8,7 C181.92,7.12 182.16,7.76 182.4,7.96 L183.4,8.8 L183.68,9.04 L184,9.32 L184.56,9.84 L185,10.32 C185.110688,10.4403029 185.20485,10.5748202 185.28,10.72 C185.4,10.92 185.36,11 185.08,10.92 L184.76,10.68 L184.28,10.16 L183.6,9.4 L182.88,8.64 L182.52,8.24 L182.16,7.88 L181.52,7.28 L181,6.8 C180.32,6.04 181.28,6.52 181.8,7 L181.8,7 Z M137.04,17.56 L137.36,17.2 L137.52,17.08 C137.388489,17.3879983 137.227754,17.6826796 137.04,17.96 L136.6,18.72 C136.617193,18.2958905 136.771598,17.8888231 137.04,17.56 L137.04,17.56 Z" id="Shape" fill="#FF1111"></path>
                <path d="M151.6,51.12 C151.72,51.16 151.4,50.92 150.88,50.64 L149.24,49.52 L148.84,49.24 L148.52,49 L148.08,48.72 C147.92,48.6 148.08,48.76 148.72,49.32 L149.16,49.64 L150.04,50.28 C150.516194,50.6346712 151.041773,50.9176754 151.6,51.12 L151.6,51.12 Z" id="Shape" fill="#FF1111"></path>
                <path d="M145.8,46.96 C145.96,47.04 145.44,46.24 145.28,46.2 C145.12,46.16 145.64,46.92 145.8,46.96 Z" id="Shape" fill="#FF1111"></path>
                <path d="M140.16,19.96 C140.16,20.2 140.56,19.36 140.84,18.76 L141.04,18.24 C140.844089,18.5122695 140.682848,18.8078777 140.56,19.12 C140.394447,19.3834877 140.260205,19.6653941 140.16,19.96 L140.16,19.96 Z" id="Shape" fill="#FF1111"></path>
                <path d="M143.24,14.48 C143.24,14.56 143.4,14.44 143.56,14.28 C143.72,14.12 143.96,13.92 143.96,13.84 C143.96,13.76 143.8,13.84 143.64,14 C143.470174,14.1256831 143.332998,14.2902943 143.24,14.48 L143.24,14.48 Z" id="Shape" fill="#FF1111"></path>
                <path d="M173.24,6.12 C173.16,6.12 173.48,6.24 173.92,6.52 L174.72,6.96 L175.68,7.52 C176.637524,8.10429825 177.559175,8.74544722 178.44,9.44 L180.48,11.2 L180.96,11.68 L181.4,12.12 L181.76,12.52 L182.08,12.88 C182.48,13.28 182.68,13.52 182.52,13.32 L182.08,12.76 L181.64,12.2 L180.96,11.52 L179.76,10.24 C179.013285,9.54000463 178.2252,8.88549273 177.4,8.28 C176.600303,7.67669727 175.742778,7.15414298 174.84,6.72 C174.08,6.32 173.48,6.08 173.24,6.12 Z" id="Shape" fill="#FF1111"></path>
                <path d="M184.8,15.6 C184.72,15.52 184.8,15.8 184.96,16.12 C185.052907,16.3600051 185.173738,16.5882417 185.32,16.8 C185.4,16.84 185.36,16.6 185.24,16.28 L185,15.84 C184.92,15.72 184.88,15.64 184.8,15.6 Z" id="Shape" fill="#FF1111"></path>
                <path d="M181.68,11.28 C181.56,11.24 181.68,11.4 181.88,11.64 L182.04,11.84 L182.24,12.04 L182.6,12.44 L183,12.88 C182.822858,12.5741885 182.607825,12.2919582 182.36,12.04 C182.261192,11.9005654 182.154344,11.7670058 182.04,11.64 L181.68,11.28 Z" id="Shape" fill="#FF1111"></path>
                <path d="M186.32,41.28 L185.84,42.04 L185.36,42.76 L184.76,43.6 L184.12,44.4 L183.52,45.16 C183.237963,45.4521141 183.007979,45.790326 182.84,46.16 C182.84,46.08 183.08,45.84 183.44,45.48 C183.8,45.12 183.8,45.08 184.04,44.88 L184.68,44.12 C184.88,43.84 185.12,43.56 185.28,43.28 C185.472181,43.0260692 185.645957,42.7587208 185.8,42.48 C186.042102,42.1134475 186.218097,41.7073051 186.32,41.28 Z" id="Shape" fill="#FF1111"></path>
                <path d="M186.36,16.28 C186.28,16.2 186.4,16.48 186.6,16.84 C186.8,17.2 186.76,17.28 186.88,17.52 C187.002573,17.7250026 187.109542,17.9389402 187.2,18.16 C187.291105,18.4008232 187.412049,18.6292719 187.56,18.84 C187.546262,18.7252483 187.505103,18.6154898 187.44,18.52 C187.319189,18.1629539 187.172121,17.815338 187,17.48 L186.72,16.84 C186.645389,16.6277762 186.522094,16.4359845 186.36,16.28 Z" id="Shape" fill="#FF1111"></path>
                <path d="M186.16,15.2 C186.56,16 186.6,16.16 186.56,16.04 L186.4,15.68 L186.24,15.4 L186.08,15.08 C185.64,14.28 185.24,13.52 186.16,15.2 Z" id="Shape" fill="#FF1111"></path>
                <path d="M187.32,16.96 C187.24,16.92 187.32,17.2 187.4,17.52 L187.52,17.76 C187.528011,17.8450549 187.555376,17.9271495 187.6,18 C187.636464,18.114299 187.690439,18.2222493 187.76,18.32 C187.84,18.36 187.8,18.08 187.68,17.76 C187.615986,17.4715156 187.493459,17.1992342 187.32,16.96 L187.32,16.96 Z" id="Shape" fill="#FF1111"></path>
                <path d="M190.12,36.56 C189.92,37.28 190.12,37.08 190.32,36.68 C190.52,36.28 190.68,35.64 190.52,35.56 C190.36,35.48 190.36,35.68 190.28,35.88 C190.2,36.08 190.16,36.4 190.12,36.56 Z" id="Shape" fill="#FF1111"></path>
                <path d="M189.12,40.4 C189.12,40.32 188.96,40.48 188.84,40.72 C188.695344,40.8972964 188.586649,41.1010996 188.52,41.32 C188.52,41.44 188.68,41.24 188.84,41.04 C188.979334,40.8498944 189.074946,40.6313529 189.12,40.4 Z" id="Shape" fill="#FF1111"></path>
                <path d="M187.04,13.48 C186.88,13.36 187.32,14.36 187.48,14.48 C187.64,14.6 187.2,13.6 187.04,13.48 Z" id="Shape" fill="#FF1111"></path>
                <path d="M179.52,16.36 C179.477227,16.2036051 179.409707,16.0550609 179.32,15.92 L179.2,15.76 C179.06803,15.5113221 178.921093,15.2708803 178.76,15.04 C178.617601,14.8014076 178.457131,14.5740757 178.28,14.36 C178.08214,14.1828401 177.850977,14.0468617 177.6,13.96 L177.24,13.88 C176.973686,13.8813686 176.717269,13.9810866 176.52,14.16 C176.336782,14.3231588 176.163159,14.4967823 176,14.68 L175.6,15.16 L173.48,17.72 C173.293156,17.9638196 173.119571,18.21752 172.96,18.48 L172.68,18.84 C172.56986,19.0421909 172.43554,19.2302378 172.28,19.4 L172.16,19.56 L171.96,19.84 L171.6,20.32 C171.452288,20.4873245 171.330899,20.6761526 171.24,20.88 L170.96,21.24 L169.76,22.96 L169.76,22.96 L169.64,23.12 L169.56,23.2 L169.24,23.64 C169.117876,23.8313643 169.010884,24.0319743 168.92,24.24 L168.72,24.6 C168.696855,24.6205155 168.682526,24.649175 168.68,24.68 L167.8,24.92 L165.72,25.52 L163.64,26.08 L160.32,26.96 L158.04,27.68 L157.24,27.96 L157.24,27.88 L157.6,27.32 C157.72,27.08 157.8,27.04 157.84,27.04 C158.135679,26.9829142 158.387438,26.790393 158.52,26.52 C158.608345,26.4133936 158.676158,26.2913305 158.72,26.16 L158.84,26.04 L159,25.96 C159.391394,25.6651664 159.706794,25.2812022 159.92,24.84 L159.92,24.76 C160.126302,24.5138444 160.353844,24.2863018 160.6,24.08 L160.6,24.08 C160.823086,23.8724845 160.98848,23.6106102 161.08,23.32 C161.564669,23.005289 161.952411,22.5621556 162.2,22.04 C162.297045,21.8865715 162.403936,21.7395966 162.52,21.6 C162.805517,21.3318495 163.048326,21.0215932 163.24,20.68 C163.328317,20.6042028 163.396943,20.5081259 163.44,20.4 L163.68,20.08 L164.2,19.28 C164.244447,19.1818618 164.298015,19.0881165 164.36,19 C164.4,18.92 164.4,18.84 164.44,18.8 C164.806277,18.2786792 164.837472,17.5924004 164.52,17.04 C164.517474,17.009175 164.503145,16.9805155 164.48,16.96 C164.48,16.88 164.48,16.84 164.44,16.8 C164.322097,16.2334973 163.993209,15.7330156 163.52,15.4 C163.384859,15.2921786 163.275526,15.1555134 163.2,15 L162.84,14.48 C162.721905,14.3182721 162.572218,14.1821925 162.4,14.08 L161.68,13.68 C161.517431,13.6027327 161.339988,13.5617845 161.16,13.56 C160.8505,13.5754082 160.56747,13.7392673 160.4,14 L160.28,14.24 C159.994236,14.5692221 159.88945,15.0183047 160,15.44 C159.423377,15.9963646 158.925442,16.6288762 158.52,17.32 C158.290298,17.7473603 158.036558,18.1613576 157.76,18.56 C156.44,20.28 155.24,22.08 154.24,23.64 C153.24,25.2 151.8,27.52 150.56,29.4 L150.28,29.88 C150.076025,30.189585 149.889081,30.5100606 149.72,30.84 L149.68,30.84 L149.12,30.96 C148.893336,31.0192891 148.677377,31.1137711 148.48,31.24 C148.197794,31.4358823 148.009495,31.7400584 147.96,32.08 C147.915637,32.4134298 147.986178,32.7520253 148.16,33.04 L148.24,33.12 C147.941403,33.5815528 147.674135,34.0626349 147.44,34.56 C147,35.44 146.6,36.36 146.2,37.28 C145.766686,38.1845067 145.444346,39.1380958 145.24,40.12 C145.207875,40.195711 145.194166,40.2779624 145.2,40.36 L145.08,41 L146.56,41.92 L146.92,40.88 L148.16,38.72 C148.425002,38.5482054 148.644567,38.3149181 148.8,38.04 L148.8,37.96 L148.96,37.72 L148.96,37.72 L149.28,37.48 C149.48,37.24 149.72,37 149.92,36.72 L150.44,37.08 L150.6,35.76 L151.16,35.24 C151.326692,35.0128266 151.473883,34.7719691 151.6,34.52 L151.6,34.52 L151.84,34.32 C152.243095,34.1997091 152.539666,33.8563113 152.6,33.44 L152.84,33.24 C152.989049,33.1530682 153.113068,33.0290489 153.2,32.88 C153.24,32.76 153.36,32.64 153.72,32.48 L155.12,31.92 L156.36,31.4 L156.88,31.24 L157.04,31.24 L157.32,31.16 L157.48,31.16 C157.654624,31.1703932 157.826537,31.1130891 157.96,31 C158,31 158.04,31 158.04,30.96 L158.28,30.88 C158.929619,30.6059845 159.597987,30.3787391 160.28,30.2 C160.551315,30.1656144 160.811227,30.0698571 161.04,29.92 C161.483442,29.9101202 161.914374,29.77111 162.28,29.52 C162.584894,29.4693584 162.873057,29.3458602 163.12,29.16 L163.2,29.16 L163.68,29.08 L164.6,28.76 L165.8,28.4 L165.72,28.52 C164.996354,29.8256726 164.166911,31.0698376 163.24,32.24 C163.120241,32.3527358 163.024935,32.488887 162.96,32.64 C162.879197,32.7371519 162.81192,32.8447962 162.76,32.96 L162.44,33.48 L161.68,34.6 C161.24,35.24 160.8,35.88 160.4,36.56 C160.211954,36.8443868 160.038399,37.1380947 159.88,37.44 C159.838127,37.5843526 159.770358,37.7198898 159.68,37.84 L159.68,37.84 C159.303205,38.2225825 159.052035,38.7109693 158.96,39.24 C158.845435,39.6638805 158.873548,40.1136831 159.04,40.52 C159.235434,41.0385774 159.725978,41.3867056 160.28,41.4 L160.4,41.4 L160.6,41.48 C160.6,41.5020914 160.617909,41.52 160.64,41.52 C160.902553,41.9263396 161.356289,42.1683317 161.84,42.16 L162.28,42.08 L163.28,41.88 L163.12,41.52 L163.24,41.36 C163.487773,41.3440635 163.718587,41.2286569 163.88,41.04 C164.089078,40.8266737 164.204279,40.538669 164.2,40.24 C164.2,40.12 164.16,40.04 164.16,39.96 C164.084424,39.759232 164.114462,39.5339528 164.24,39.36 L164.68,38.52 C164.849443,38.2146916 164.93242,37.8689555 164.92,37.52 L164.84,36.92 L164.96,36.76 L166.96,34.2 C166.96,34.1779086 166.977909,34.16 167,34.16 L167.24,33.8 C167.505471,33.5982045 167.701259,33.318507 167.8,33 L167.92,32.72 C167.92,32.64 167.96,32.52 168,32.52 C168.085764,32.4172082 168.141172,32.2925411 168.16,32.16 L168.28,32 C168.577869,31.8421846 168.795623,31.5663617 168.88,31.24 C168.980055,31.01971 169.115138,30.817085 169.28,30.64 C169.452021,30.4499204 169.612317,30.2495502 169.76,30.04 L170.24,29.36 C170.538619,28.9822489 170.80616,28.5809375 171.04,28.16 L171.64,28.44 L171.64,27.32 C171.872871,27.1860961 172.066096,26.9928707 172.2,26.76 L172.56,26.68 C172.808626,26.5723493 173.018105,26.390801 173.16,26.16 C173.2377,25.9786929 173.331404,25.8046712 173.44,25.64 L173.56,25.56 L173.72,25.44 L173.72,25.44 C173.996259,25.3044315 174.231089,25.0972293 174.4,24.84 L174.4,24.84 L174.6,24.6 L174.68,24.44 L174.84,24.24 L174.88,24.24 L175.52,23.8 L175.6,23.8 C175.858418,23.6905292 176.090313,23.5268387 176.28,23.32 C176.442372,23.219267 176.579267,23.0823718 176.68,22.92 L176.72,22.92 L177.6,22.04 C177.93894,21.6550647 178.22174,21.2241314 178.44,20.76 C178.640034,20.6787201 178.79872,20.5200342 178.88,20.32 C179.08,19.96 179.28,19.64 179.44,19.28 C179.492039,19.1643544 179.532244,19.0437401 179.56,18.92 L179.56,18.92 C179.791417,18.0803572 179.777537,17.1920029 179.52,16.36 L179.52,16.36 Z M174.12,22.48 C173.920585,22.963048 173.604483,23.3890989 173.2,23.72 C172.996583,23.9194395 172.724811,24.0338697 172.44,24.04 C172.56,23.92 172.6,23.8 172.68,23.76 C172.76,23.72 173.08,23.32 173.36,23.2 C173.474788,23.0983436 173.569727,22.9762795 173.64,22.84 C173.72,22.6 173.88,22.52 174.12,22.44 C174.079131,22.1907173 174.210215,21.9449337 174.44,21.84 C174.36,22.08 174.4,22.36 174.12,22.48 Z M177.92,19 C177.689932,19.8635916 177.234367,20.650476 176.6,21.28 C176.074492,21.8793507 175.435547,22.3687555 174.72,22.72 L174.44,22.88 C174.514008,22.6357031 174.669245,22.4240158 174.88,22.28 C175.12879,22.0707638 175.309785,21.79231 175.4,21.48 L175.08,21.56 L175.08,21.48 L175.28,21.12 C175.32,20.96 175.44,20.88 175.64,20.84 C175.84,20.8 175.96,20.68 176.08,20.48 C176.571755,19.6994738 177.194173,19.0094021 177.92,18.44 C177.960052,18.6245183 177.960052,18.8154817 177.92,19 L177.92,19 Z" id="Shape" fill="#FF1111" fill-rule="nonzero"></path>
            </g>
        </g>
    </g>
</svg>